<svg width="16" height="16" viewBox="0 0 16 16" fill="none" xmlns="http://www.w3.org/2000/svg">
    <g clip-path="url(#clip0_1359_5863)">
        <path d="M9.49023 1.07715L10.4395 1.07812C11.3391 1.08371 12.0945 1.10684 12.7207 1.19727L13.0371 1.25098C13.7078 1.38357 14.28 1.62529 14.7539 2.08398L14.8613 2.19336L14.9629 2.30859C15.4543 2.89526 15.6765 3.62115 15.7852 4.4873L15.8281 4.90137C15.8639 5.33007 15.8795 5.80738 15.8877 6.33691C15.8967 6.402 15.8993 6.46791 15.8916 6.5332C15.8959 6.97085 15.8984 7.44514 15.8975 7.95605V8.04395C15.8975 9.29561 15.8972 10.3268 15.8223 11.165L15.7852 11.5127C15.6765 12.3788 15.4542 13.1048 14.9629 13.6914L14.8613 13.8066C14.3673 14.337 13.7592 14.6063 13.0371 14.749L12.7207 14.8027C11.885 14.9233 10.8206 14.9238 9.49023 14.9238H6.50781C5.34356 14.9238 4.38292 14.9235 3.60156 14.8428L3.27832 14.8027C2.41581 14.6777 1.7023 14.4127 1.1377 13.8066H1.13672C0.644255 13.2764 0.394887 12.625 0.262695 11.8516L0.212891 11.5127C0.101011 10.6162 0.101562 9.47448 0.101562 8.04395V7.95605C0.100597 7.44022 0.10209 6.96165 0.106445 6.52051C0.100077 6.46002 0.101378 6.39914 0.109375 6.33887C0.121011 5.63141 0.146997 5.01709 0.212891 4.4873L0.262695 4.14844C0.394902 3.37505 0.644233 2.7236 1.13672 2.19336H1.1377L1.24512 2.08398C1.7919 1.5549 2.46964 1.31447 3.27832 1.19727L3.60254 1.15723C4.3841 1.07654 5.34394 1.07715 6.50781 1.07715H9.49023ZM1.38965 8C1.38965 9.48968 1.3911 10.539 1.49023 11.333L1.53027 11.6074C1.63337 12.212 1.80301 12.5732 2.05371 12.8428L2.16602 12.9531C2.44276 13.1968 2.82401 13.3548 3.45117 13.4453L3.73926 13.4805C4.43826 13.5521 5.33568 13.5537 6.54883 13.5537H9.4502C10.8364 13.5537 11.811 13.5517 12.5479 13.4453L12.8018 13.4023C13.3613 13.2921 13.6955 13.1114 13.9453 12.8428C14.2317 12.5348 14.4112 12.1064 14.5078 11.332L14.541 11.0225C14.6078 10.2695 14.6094 9.30363 14.6094 8C14.6094 7.69056 14.6082 7.3989 14.6074 7.125H1.39062C1.38986 7.3989 1.38965 7.69056 1.38965 8ZM6.54883 10.4346C6.72195 10.4347 6.88678 10.5086 7.00684 10.6377L7.08594 10.7422C7.15511 10.8537 7.19235 10.9847 7.19238 11.1191C7.19238 11.2539 7.15531 11.3854 7.08594 11.4971L7.00684 11.6006C6.88678 11.7296 6.72195 11.8036 6.54883 11.8037H3.64746C3.51763 11.8037 3.39214 11.7627 3.28711 11.6875L3.18945 11.6006C3.06957 11.4717 3.00293 11.2985 3.00293 11.1191C3.00298 10.9398 3.06959 10.7665 3.18945 10.6377L3.28711 10.5518C3.3922 10.4764 3.51751 10.4346 3.64746 10.4346H6.54883ZM6.54883 2.44629C5.33569 2.44629 4.43826 2.44793 3.73926 2.51953L3.45117 2.55469C2.82406 2.64521 2.44276 2.80323 2.16602 3.04688L2.05371 3.15723C1.80302 3.42673 1.63338 3.78804 1.53027 4.39258L1.49023 4.66699C1.45052 4.98433 1.42791 5.34322 1.41309 5.75586H14.585C14.5742 5.45495 14.5602 5.18269 14.5371 4.93457L14.5078 4.66797C14.4232 3.99015 14.2756 3.57724 14.0479 3.27832L13.9453 3.15723C13.6955 2.88863 13.3613 2.70789 12.8018 2.59766L12.5479 2.55469C11.811 2.44835 10.8364 2.44629 9.4502 2.44629H6.54883Z" fill="#849D65" stroke="#849D65" stroke-width="0.2"/>
    </g>
    <defs>
        <clipPath id="clip0_1359_5863">
            <rect width="16" height="16" fill="white"/>
        </clipPath>
    </defs>
</svg>
