<svg width="16" height="16" viewBox="0 0 16 16" fill="none" xmlns="http://www.w3.org/2000/svg">
    <mask id="path-1-outside-1_1452_1759" maskUnits="userSpaceOnUse" x="0.173828" y="-0.800781" width="15" height="17" fill="black">
        <rect fill="white" x="0.173828" y="-0.800781" width="15" height="17"/>
        <path fill-rule="evenodd" clip-rule="evenodd" d="M4.56834 0.199248C4.60194 0.199263 4.63603 0.199279 4.67064 0.199279H11.3281C11.3627 0.199279 11.3968 0.199263 11.4304 0.199248C12.1424 0.198925 12.6321 0.198703 13.0451 0.347836L13.0483 0.348979C13.4331 0.490757 13.7812 0.72247 14.0657 1.02614C14.3499 1.32944 14.5629 1.6964 14.6884 2.09865C14.8254 2.53103 14.8252 3.04634 14.8249 3.80987C14.8249 3.84423 14.8249 3.87909 14.8249 3.91447V14.0761C14.8249 15.1385 13.6164 15.773 12.8198 15.0175L12.8179 15.0157C12.7925 14.9914 12.7593 14.9779 12.7247 14.9779C12.6902 14.9779 12.657 14.9914 12.6316 15.0157L12.6298 15.0175L12.2937 15.3363L12.2926 15.3373C11.9813 15.6351 11.5732 15.8005 11.1496 15.8005C10.7255 15.8005 10.317 15.6347 10.0056 15.3363C9.88826 15.2238 9.73432 15.1613 9.57451 15.1613C9.41469 15.1613 9.26075 15.2238 9.14342 15.3363C8.83203 15.6347 8.42351 15.8005 7.99939 15.8005C7.57527 15.8005 7.16675 15.6347 6.85536 15.3363C6.73802 15.2238 6.58409 15.1613 6.42427 15.1613C6.26445 15.1613 6.11052 15.2238 5.99318 15.3363C5.68179 15.6347 5.27327 15.8005 4.84915 15.8005C4.42552 15.8005 4.01745 15.6351 3.7062 15.3373L3.70512 15.3363L3.36901 15.0175L3.36715 15.0157C3.3418 14.9914 3.30855 14.9779 3.27403 14.9779C3.23952 14.9779 3.20627 14.9914 3.18092 15.0157L3.17902 15.0175C2.38235 15.773 1.17387 15.1385 1.17387 14.0761V3.91447C1.17387 3.87934 1.17386 3.84472 1.17385 3.8106C1.17359 3.04549 1.17341 2.53089 1.3106 2.09706L1.80951 2.26658L1.30993 2.09922C1.43548 1.69655 1.64876 1.32924 1.93326 1.02573C2.21776 0.722217 2.56583 0.490653 2.95053 0.348966L2.95363 0.347825C3.36672 0.198693 3.85637 0.198925 4.56834 0.199248ZM3.3005 1.37518C3.0683 1.46099 2.85819 1.60092 2.6864 1.7842C2.5142 1.9679 2.38511 2.19022 2.30912 2.43394L2.30845 2.4361C2.23054 2.68243 2.22395 3.00606 2.22395 3.91447V14.0761C2.22395 14.1624 2.26591 14.2154 2.31872 14.2407C2.34619 14.2539 2.37301 14.2573 2.39531 14.2542C2.41495 14.2515 2.44034 14.2427 2.47018 14.2144L2.8246 14.616L2.46828 14.2163C2.68765 14.0062 2.97536 13.8895 3.27403 13.8895C3.57224 13.8895 3.85951 14.0058 4.07875 14.2153L4.07978 14.2163L4.41807 14.5371C4.5354 14.6496 4.68934 14.7121 4.84915 14.7121C5.00897 14.7121 5.16291 14.6496 5.28024 14.5371C5.59163 14.2387 6.00015 14.0729 6.42427 14.0729C6.84839 14.0729 7.25691 14.2387 7.5683 14.5371C7.68564 14.6496 7.83957 14.7121 7.99939 14.7121C8.15921 14.7121 8.31314 14.6496 8.43048 14.5371C8.74187 14.2387 9.15039 14.0729 9.57451 14.0729C9.99863 14.0729 10.4072 14.2387 10.7185 14.5371C10.8359 14.6496 10.9898 14.7121 11.1496 14.7121C11.3094 14.7121 11.4634 14.6496 11.5807 14.5371L11.5827 14.5352L11.919 14.2163L11.92 14.2153C12.1392 14.0058 12.4265 13.8895 12.7247 13.8895C13.0234 13.8895 13.3111 14.0062 13.5305 14.2163L13.1742 14.616L13.5286 14.2144C13.5584 14.2427 13.5838 14.2515 13.6035 14.2542C13.6258 14.2573 13.6526 14.2539 13.6801 14.2407C13.7329 14.2154 13.7748 14.1624 13.7748 14.0761V3.91447C13.7748 3.00563 13.7682 2.68192 13.6905 2.43746L13.6896 2.43447C13.6137 2.19065 13.4846 1.96822 13.3124 1.78441C13.1406 1.60104 12.9305 1.46103 12.6982 1.37516C12.4758 1.29529 12.181 1.28771 11.3281 1.28771H4.67064C3.81769 1.28771 3.52298 1.29529 3.3005 1.37518Z"/>
        <path fill-rule="evenodd" clip-rule="evenodd" d="M3.97337 4.73411C3.97337 4.43355 4.20844 4.18989 4.49841 4.18989H4.84844C5.13841 4.18989 5.37348 4.43355 5.37348 4.73411C5.37348 5.03467 5.13841 5.27833 4.84844 5.27833H4.49841C4.20844 5.27833 3.97337 5.03467 3.97337 4.73411ZM6.42356 4.73411C6.42356 4.43355 6.65863 4.18989 6.9486 4.18989H11.4989C11.7889 4.18989 12.024 4.43355 12.024 4.73411C12.024 5.03467 11.7889 5.27833 11.4989 5.27833H6.9486C6.65863 5.27833 6.42356 5.03467 6.42356 4.73411ZM3.97337 7.27379C3.97337 6.97323 4.20844 6.72957 4.49841 6.72957H4.84844C5.13841 6.72957 5.37348 6.97323 5.37348 7.27379C5.37348 7.57436 5.13841 7.81801 4.84844 7.81801H4.49841C4.20844 7.81801 3.97337 7.57436 3.97337 7.27379ZM6.42356 7.27379C6.42356 6.97323 6.65863 6.72957 6.9486 6.72957H11.4989C11.7889 6.72957 12.024 6.97323 12.024 7.27379C12.024 7.57436 11.7889 7.81801 11.4989 7.81801H6.9486C6.65863 7.81801 6.42356 7.57436 6.42356 7.27379ZM3.97337 9.81347C3.97337 9.51291 4.20844 9.26926 4.49841 9.26926H4.84844C5.13841 9.26926 5.37348 9.51291 5.37348 9.81347C5.37348 10.114 5.13841 10.3577 4.84844 10.3577H4.49841C4.20844 10.3577 3.97337 10.114 3.97337 9.81347ZM6.42356 9.81347C6.42356 9.51291 6.65863 9.26926 6.9486 9.26926H11.4989C11.7889 9.26926 12.024 9.51291 12.024 9.81347C12.024 10.114 11.7889 10.3577 11.4989 10.3577H6.9486C6.65863 10.3577 6.42356 10.114 6.42356 9.81347Z"/>
    </mask>
    <path fill-rule="evenodd" clip-rule="evenodd" d="M4.56834 0.199248C4.60194 0.199263 4.63603 0.199279 4.67064 0.199279H11.3281C11.3627 0.199279 11.3968 0.199263 11.4304 0.199248C12.1424 0.198925 12.6321 0.198703 13.0451 0.347836L13.0483 0.348979C13.4331 0.490757 13.7812 0.72247 14.0657 1.02614C14.3499 1.32944 14.5629 1.6964 14.6884 2.09865C14.8254 2.53103 14.8252 3.04634 14.8249 3.80987C14.8249 3.84423 14.8249 3.87909 14.8249 3.91447V14.0761C14.8249 15.1385 13.6164 15.773 12.8198 15.0175L12.8179 15.0157C12.7925 14.9914 12.7593 14.9779 12.7247 14.9779C12.6902 14.9779 12.657 14.9914 12.6316 15.0157L12.6298 15.0175L12.2937 15.3363L12.2926 15.3373C11.9813 15.6351 11.5732 15.8005 11.1496 15.8005C10.7255 15.8005 10.317 15.6347 10.0056 15.3363C9.88826 15.2238 9.73432 15.1613 9.57451 15.1613C9.41469 15.1613 9.26075 15.2238 9.14342 15.3363C8.83203 15.6347 8.42351 15.8005 7.99939 15.8005C7.57527 15.8005 7.16675 15.6347 6.85536 15.3363C6.73802 15.2238 6.58409 15.1613 6.42427 15.1613C6.26445 15.1613 6.11052 15.2238 5.99318 15.3363C5.68179 15.6347 5.27327 15.8005 4.84915 15.8005C4.42552 15.8005 4.01745 15.6351 3.7062 15.3373L3.70512 15.3363L3.36901 15.0175L3.36715 15.0157C3.3418 14.9914 3.30855 14.9779 3.27403 14.9779C3.23952 14.9779 3.20627 14.9914 3.18092 15.0157L3.17902 15.0175C2.38235 15.773 1.17387 15.1385 1.17387 14.0761V3.91447C1.17387 3.87934 1.17386 3.84472 1.17385 3.8106C1.17359 3.04549 1.17341 2.53089 1.3106 2.09706L1.80951 2.26658L1.30993 2.09922C1.43548 1.69655 1.64876 1.32924 1.93326 1.02573C2.21776 0.722217 2.56583 0.490653 2.95053 0.348966L2.95363 0.347825C3.36672 0.198693 3.85637 0.198925 4.56834 0.199248ZM3.3005 1.37518C3.0683 1.46099 2.85819 1.60092 2.6864 1.7842C2.5142 1.9679 2.38511 2.19022 2.30912 2.43394L2.30845 2.4361C2.23054 2.68243 2.22395 3.00606 2.22395 3.91447V14.0761C2.22395 14.1624 2.26591 14.2154 2.31872 14.2407C2.34619 14.2539 2.37301 14.2573 2.39531 14.2542C2.41495 14.2515 2.44034 14.2427 2.47018 14.2144L2.8246 14.616L2.46828 14.2163C2.68765 14.0062 2.97536 13.8895 3.27403 13.8895C3.57224 13.8895 3.85951 14.0058 4.07875 14.2153L4.07978 14.2163L4.41807 14.5371C4.5354 14.6496 4.68934 14.7121 4.84915 14.7121C5.00897 14.7121 5.16291 14.6496 5.28024 14.5371C5.59163 14.2387 6.00015 14.0729 6.42427 14.0729C6.84839 14.0729 7.25691 14.2387 7.5683 14.5371C7.68564 14.6496 7.83957 14.7121 7.99939 14.7121C8.15921 14.7121 8.31314 14.6496 8.43048 14.5371C8.74187 14.2387 9.15039 14.0729 9.57451 14.0729C9.99863 14.0729 10.4072 14.2387 10.7185 14.5371C10.8359 14.6496 10.9898 14.7121 11.1496 14.7121C11.3094 14.7121 11.4634 14.6496 11.5807 14.5371L11.5827 14.5352L11.919 14.2163L11.92 14.2153C12.1392 14.0058 12.4265 13.8895 12.7247 13.8895C13.0234 13.8895 13.3111 14.0062 13.5305 14.2163L13.1742 14.616L13.5286 14.2144C13.5584 14.2427 13.5838 14.2515 13.6035 14.2542C13.6258 14.2573 13.6526 14.2539 13.6801 14.2407C13.7329 14.2154 13.7748 14.1624 13.7748 14.0761V3.91447C13.7748 3.00563 13.7682 2.68192 13.6905 2.43746L13.6896 2.43447C13.6137 2.19065 13.4846 1.96822 13.3124 1.78441C13.1406 1.60104 12.9305 1.46103 12.6982 1.37516C12.4758 1.29529 12.181 1.28771 11.3281 1.28771H4.67064C3.81769 1.28771 3.52298 1.29529 3.3005 1.37518Z" fill="#849D65"/>
    <path fill-rule="evenodd" clip-rule="evenodd" d="M3.97337 4.73411C3.97337 4.43355 4.20844 4.18989 4.49841 4.18989H4.84844C5.13841 4.18989 5.37348 4.43355 5.37348 4.73411C5.37348 5.03467 5.13841 5.27833 4.84844 5.27833H4.49841C4.20844 5.27833 3.97337 5.03467 3.97337 4.73411ZM6.42356 4.73411C6.42356 4.43355 6.65863 4.18989 6.9486 4.18989H11.4989C11.7889 4.18989 12.024 4.43355 12.024 4.73411C12.024 5.03467 11.7889 5.27833 11.4989 5.27833H6.9486C6.65863 5.27833 6.42356 5.03467 6.42356 4.73411ZM3.97337 7.27379C3.97337 6.97323 4.20844 6.72957 4.49841 6.72957H4.84844C5.13841 6.72957 5.37348 6.97323 5.37348 7.27379C5.37348 7.57436 5.13841 7.81801 4.84844 7.81801H4.49841C4.20844 7.81801 3.97337 7.57436 3.97337 7.27379ZM6.42356 7.27379C6.42356 6.97323 6.65863 6.72957 6.9486 6.72957H11.4989C11.7889 6.72957 12.024 6.97323 12.024 7.27379C12.024 7.57436 11.7889 7.81801 11.4989 7.81801H6.9486C6.65863 7.81801 6.42356 7.57436 6.42356 7.27379ZM3.97337 9.81347C3.97337 9.51291 4.20844 9.26926 4.49841 9.26926H4.84844C5.13841 9.26926 5.37348 9.51291 5.37348 9.81347C5.37348 10.114 5.13841 10.3577 4.84844 10.3577H4.49841C4.20844 10.3577 3.97337 10.114 3.97337 9.81347ZM6.42356 9.81347C6.42356 9.51291 6.65863 9.26926 6.9486 9.26926H11.4989C11.7889 9.26926 12.024 9.51291 12.024 9.81347C12.024 10.114 11.7889 10.3577 11.4989 10.3577H6.9486C6.65863 10.3577 6.42356 10.114 6.42356 9.81347Z" fill="#849D65"/>
    <path fill-rule="evenodd" clip-rule="evenodd" d="M4.56834 0.199248C4.60194 0.199263 4.63603 0.199279 4.67064 0.199279H11.3281C11.3627 0.199279 11.3968 0.199263 11.4304 0.199248C12.1424 0.198925 12.6321 0.198703 13.0451 0.347836L13.0483 0.348979C13.4331 0.490757 13.7812 0.72247 14.0657 1.02614C14.3499 1.32944 14.5629 1.6964 14.6884 2.09865C14.8254 2.53103 14.8252 3.04634 14.8249 3.80987C14.8249 3.84423 14.8249 3.87909 14.8249 3.91447V14.0761C14.8249 15.1385 13.6164 15.773 12.8198 15.0175L12.8179 15.0157C12.7925 14.9914 12.7593 14.9779 12.7247 14.9779C12.6902 14.9779 12.657 14.9914 12.6316 15.0157L12.6298 15.0175L12.2937 15.3363L12.2926 15.3373C11.9813 15.6351 11.5732 15.8005 11.1496 15.8005C10.7255 15.8005 10.317 15.6347 10.0056 15.3363C9.88826 15.2238 9.73432 15.1613 9.57451 15.1613C9.41469 15.1613 9.26075 15.2238 9.14342 15.3363C8.83203 15.6347 8.42351 15.8005 7.99939 15.8005C7.57527 15.8005 7.16675 15.6347 6.85536 15.3363C6.73802 15.2238 6.58409 15.1613 6.42427 15.1613C6.26445 15.1613 6.11052 15.2238 5.99318 15.3363C5.68179 15.6347 5.27327 15.8005 4.84915 15.8005C4.42552 15.8005 4.01745 15.6351 3.7062 15.3373L3.70512 15.3363L3.36901 15.0175L3.36715 15.0157C3.3418 14.9914 3.30855 14.9779 3.27403 14.9779C3.23952 14.9779 3.20627 14.9914 3.18092 15.0157L3.17902 15.0175C2.38235 15.773 1.17387 15.1385 1.17387 14.0761V3.91447C1.17387 3.87934 1.17386 3.84472 1.17385 3.8106C1.17359 3.04549 1.17341 2.53089 1.3106 2.09706L1.80951 2.26658L1.30993 2.09922C1.43548 1.69655 1.64876 1.32924 1.93326 1.02573C2.21776 0.722217 2.56583 0.490653 2.95053 0.348966L2.95363 0.347825C3.36672 0.198693 3.85637 0.198925 4.56834 0.199248ZM3.3005 1.37518C3.0683 1.46099 2.85819 1.60092 2.6864 1.7842C2.5142 1.9679 2.38511 2.19022 2.30912 2.43394L2.30845 2.4361C2.23054 2.68243 2.22395 3.00606 2.22395 3.91447V14.0761C2.22395 14.1624 2.26591 14.2154 2.31872 14.2407C2.34619 14.2539 2.37301 14.2573 2.39531 14.2542C2.41495 14.2515 2.44034 14.2427 2.47018 14.2144L2.8246 14.616L2.46828 14.2163C2.68765 14.0062 2.97536 13.8895 3.27403 13.8895C3.57224 13.8895 3.85951 14.0058 4.07875 14.2153L4.07978 14.2163L4.41807 14.5371C4.5354 14.6496 4.68934 14.7121 4.84915 14.7121C5.00897 14.7121 5.16291 14.6496 5.28024 14.5371C5.59163 14.2387 6.00015 14.0729 6.42427 14.0729C6.84839 14.0729 7.25691 14.2387 7.5683 14.5371C7.68564 14.6496 7.83957 14.7121 7.99939 14.7121C8.15921 14.7121 8.31314 14.6496 8.43048 14.5371C8.74187 14.2387 9.15039 14.0729 9.57451 14.0729C9.99863 14.0729 10.4072 14.2387 10.7185 14.5371C10.8359 14.6496 10.9898 14.7121 11.1496 14.7121C11.3094 14.7121 11.4634 14.6496 11.5807 14.5371L11.5827 14.5352L11.919 14.2163L11.92 14.2153C12.1392 14.0058 12.4265 13.8895 12.7247 13.8895C13.0234 13.8895 13.3111 14.0062 13.5305 14.2163L13.1742 14.616L13.5286 14.2144C13.5584 14.2427 13.5838 14.2515 13.6035 14.2542C13.6258 14.2573 13.6526 14.2539 13.6801 14.2407C13.7329 14.2154 13.7748 14.1624 13.7748 14.0761V3.91447C13.7748 3.00563 13.7682 2.68192 13.6905 2.43746L13.6896 2.43447C13.6137 2.19065 13.4846 1.96822 13.3124 1.78441C13.1406 1.60104 12.9305 1.46103 12.6982 1.37516C12.4758 1.29529 12.181 1.28771 11.3281 1.28771H4.67064C3.81769 1.28771 3.52298 1.29529 3.3005 1.37518Z" stroke="#849D65" stroke-width="0.4" stroke-linecap="round" mask="url(#path-1-outside-1_1452_1759)"/>
    <path fill-rule="evenodd" clip-rule="evenodd" d="M3.97337 4.73411C3.97337 4.43355 4.20844 4.18989 4.49841 4.18989H4.84844C5.13841 4.18989 5.37348 4.43355 5.37348 4.73411C5.37348 5.03467 5.13841 5.27833 4.84844 5.27833H4.49841C4.20844 5.27833 3.97337 5.03467 3.97337 4.73411ZM6.42356 4.73411C6.42356 4.43355 6.65863 4.18989 6.9486 4.18989H11.4989C11.7889 4.18989 12.024 4.43355 12.024 4.73411C12.024 5.03467 11.7889 5.27833 11.4989 5.27833H6.9486C6.65863 5.27833 6.42356 5.03467 6.42356 4.73411ZM3.97337 7.27379C3.97337 6.97323 4.20844 6.72957 4.49841 6.72957H4.84844C5.13841 6.72957 5.37348 6.97323 5.37348 7.27379C5.37348 7.57436 5.13841 7.81801 4.84844 7.81801H4.49841C4.20844 7.81801 3.97337 7.57436 3.97337 7.27379ZM6.42356 7.27379C6.42356 6.97323 6.65863 6.72957 6.9486 6.72957H11.4989C11.7889 6.72957 12.024 6.97323 12.024 7.27379C12.024 7.57436 11.7889 7.81801 11.4989 7.81801H6.9486C6.65863 7.81801 6.42356 7.57436 6.42356 7.27379ZM3.97337 9.81347C3.97337 9.51291 4.20844 9.26926 4.49841 9.26926H4.84844C5.13841 9.26926 5.37348 9.51291 5.37348 9.81347C5.37348 10.114 5.13841 10.3577 4.84844 10.3577H4.49841C4.20844 10.3577 3.97337 10.114 3.97337 9.81347ZM6.42356 9.81347C6.42356 9.51291 6.65863 9.26926 6.9486 9.26926H11.4989C11.7889 9.26926 12.024 9.51291 12.024 9.81347C12.024 10.114 11.7889 10.3577 11.4989 10.3577H6.9486C6.65863 10.3577 6.42356 10.114 6.42356 9.81347Z" stroke="#849D65" stroke-width="0.4" stroke-linecap="round" mask="url(#path-1-outside-1_1452_1759)"/>
</svg>
