<svg width="16" height="16" viewBox="0 0 16 16" fill="none" xmlns="http://www.w3.org/2000/svg">
    <mask id="path-1-outside-1_1452_1875" maskUnits="userSpaceOnUse" x="-0.898438" y="-0.898438" width="17" height="17" fill="black">
        <rect fill="white" x="-0.898438" y="-0.898438" width="17" height="17"/>
        <path fill-rule="evenodd" clip-rule="evenodd" d="M2.39354 2.38527C5.46778 -0.685033 10.466 -0.652628 13.5588 2.44116C16.6533 5.53577 16.6857 10.5365 13.6107 13.6109C10.5356 16.6852 5.53583 16.6537 2.44134 13.559C1.57081 12.6923 0.913075 11.6354 0.519799 10.4716C0.126524 9.30774 0.0084132 8.06857 0.174744 6.85138C0.196551 6.69164 0.28092 6.5471 0.409292 6.44956C0.537663 6.35203 0.699521 6.30948 0.859259 6.33129C1.019 6.3531 1.16353 6.43747 1.26106 6.56585C1.35859 6.69422 1.40113 6.85609 1.37933 7.01583C1.23812 8.04735 1.33808 9.09756 1.67135 10.0839C2.00462 11.0703 2.56212 11.9659 3.30002 12.7003C5.92872 15.3283 10.1597 15.3437 12.752 12.7522C15.3434 10.1598 15.328 5.92867 12.7001 3.29988C10.0731 0.673514 5.84447 0.656502 3.25223 3.24479L3.85816 3.24722C3.93795 3.24759 4.01688 3.26368 4.09045 3.29455C4.16402 3.32543 4.23079 3.3705 4.28694 3.42718C4.34309 3.48386 4.38753 3.55105 4.41772 3.62491C4.44791 3.69876 4.46326 3.77785 4.46288 3.85763C4.46251 3.93742 4.44643 4.01636 4.41555 4.08993C4.38468 4.1635 4.33961 4.23027 4.28293 4.28643C4.22625 4.34258 4.15906 4.38702 4.08521 4.41721C4.01135 4.4474 3.93228 4.46275 3.85249 4.46238L1.79004 4.45266C1.62988 4.4518 1.47655 4.38775 1.36338 4.27442C1.25021 4.16109 1.18636 4.00767 1.18572 3.84751L1.17519 1.7866C1.17476 1.70681 1.19006 1.62772 1.2202 1.55384C1.25034 1.47996 1.29473 1.41275 1.35085 1.35603C1.40696 1.29931 1.4737 1.2542 1.54725 1.22327C1.6208 1.19234 1.69972 1.17621 1.77951 1.17578C1.85929 1.17535 1.93838 1.19065 2.01225 1.22079C2.08613 1.25093 2.15335 1.29533 2.21006 1.35144C2.26678 1.40756 2.31189 1.4743 2.34282 1.54785C2.37374 1.62141 2.38988 1.70033 2.3903 1.78012L2.39354 2.38527ZM7.99927 4.1513C8.16041 4.1513 8.31494 4.21531 8.42888 4.32925C8.54282 4.4432 8.60683 4.59774 8.60683 4.75888V7.74817L10.4546 9.59521C10.5127 9.65123 10.559 9.71825 10.5909 9.79236C10.6227 9.86647 10.6395 9.94619 10.6403 10.0269C10.641 10.1075 10.6257 10.1875 10.5952 10.2622C10.5647 10.3369 10.5196 10.4048 10.4626 10.4618C10.4055 10.5189 10.3377 10.5641 10.2631 10.5947C10.1884 10.6252 10.1084 10.6406 10.0278 10.64C9.94708 10.6393 9.86735 10.6226 9.79321 10.5908C9.71907 10.559 9.65201 10.5127 9.59593 10.4547L7.39253 8.25124V4.75969C7.39253 4.59855 7.45654 4.44401 7.57048 4.33006C7.68441 4.21612 7.83895 4.15211 8.00008 4.15211"/>
    </mask>
    <path fill-rule="evenodd" clip-rule="evenodd" d="M2.39354 2.38527C5.46778 -0.685033 10.466 -0.652628 13.5588 2.44116C16.6533 5.53577 16.6857 10.5365 13.6107 13.6109C10.5356 16.6852 5.53583 16.6537 2.44134 13.559C1.57081 12.6923 0.913075 11.6354 0.519799 10.4716C0.126524 9.30774 0.0084132 8.06857 0.174744 6.85138C0.196551 6.69164 0.28092 6.5471 0.409292 6.44956C0.537663 6.35203 0.699521 6.30948 0.859259 6.33129C1.019 6.3531 1.16353 6.43747 1.26106 6.56585C1.35859 6.69422 1.40113 6.85609 1.37933 7.01583C1.23812 8.04735 1.33808 9.09756 1.67135 10.0839C2.00462 11.0703 2.56212 11.9659 3.30002 12.7003C5.92872 15.3283 10.1597 15.3437 12.752 12.7522C15.3434 10.1598 15.328 5.92867 12.7001 3.29988C10.0731 0.673514 5.84447 0.656502 3.25223 3.24479L3.85816 3.24722C3.93795 3.24759 4.01688 3.26368 4.09045 3.29455C4.16402 3.32543 4.23079 3.3705 4.28694 3.42718C4.34309 3.48386 4.38753 3.55105 4.41772 3.62491C4.44791 3.69876 4.46326 3.77785 4.46288 3.85763C4.46251 3.93742 4.44643 4.01636 4.41555 4.08993C4.38468 4.1635 4.33961 4.23027 4.28293 4.28643C4.22625 4.34258 4.15906 4.38702 4.08521 4.41721C4.01135 4.4474 3.93228 4.46275 3.85249 4.46238L1.79004 4.45266C1.62988 4.4518 1.47655 4.38775 1.36338 4.27442C1.25021 4.16109 1.18636 4.00767 1.18572 3.84751L1.17519 1.7866C1.17476 1.70681 1.19006 1.62772 1.2202 1.55384C1.25034 1.47996 1.29473 1.41275 1.35085 1.35603C1.40696 1.29931 1.4737 1.2542 1.54725 1.22327C1.6208 1.19234 1.69972 1.17621 1.77951 1.17578C1.85929 1.17535 1.93838 1.19065 2.01225 1.22079C2.08613 1.25093 2.15335 1.29533 2.21006 1.35144C2.26678 1.40756 2.31189 1.4743 2.34282 1.54785C2.37374 1.62141 2.38988 1.70033 2.3903 1.78012L2.39354 2.38527ZM7.99927 4.1513C8.16041 4.1513 8.31494 4.21531 8.42888 4.32925C8.54282 4.4432 8.60683 4.59774 8.60683 4.75888V7.74817L10.4546 9.59521C10.5127 9.65123 10.559 9.71825 10.5909 9.79236C10.6227 9.86647 10.6395 9.94619 10.6403 10.0269C10.641 10.1075 10.6257 10.1875 10.5952 10.2622C10.5647 10.3369 10.5196 10.4048 10.4626 10.4618C10.4055 10.5189 10.3377 10.5641 10.2631 10.5947C10.1884 10.6252 10.1084 10.6406 10.0278 10.64C9.94708 10.6393 9.86735 10.6226 9.79321 10.5908C9.71907 10.559 9.65201 10.5127 9.59593 10.4547L7.39253 8.25124V4.75969C7.39253 4.59855 7.45654 4.44401 7.57048 4.33006C7.68441 4.21612 7.83895 4.15211 8.00008 4.15211" fill="#849D65"/>
    <path d="M2.39354 2.38527L2.29355 2.3858L2.29483 2.62519L2.46421 2.45602L2.39354 2.38527ZM13.5588 2.44116L13.4881 2.51186L13.4881 2.51187L13.5588 2.44116ZM2.44134 13.559L2.51205 13.4883L2.5119 13.4882L2.44134 13.559ZM0.174744 6.85138L0.273824 6.86492L0.273825 6.8649L0.174744 6.85138ZM1.37933 7.01583L1.4784 7.02939L1.47841 7.02936L1.37933 7.01583ZM3.30002 12.7003L3.37072 12.6296L3.37056 12.6295L3.30002 12.7003ZM12.752 12.7522L12.8227 12.8229L12.8227 12.8229L12.752 12.7522ZM12.7001 3.29988L12.7709 3.22918L12.7708 3.22916L12.7001 3.29988ZM3.25223 3.24479L3.18157 3.17402L3.01151 3.34382L3.25182 3.34479L3.25223 3.24479ZM3.85816 3.24722L3.85863 3.14722L3.85856 3.14722L3.85816 3.24722ZM4.08521 4.41721L4.04737 4.32465L4.08521 4.41721ZM3.85249 4.46238L3.85202 4.56238H3.85203L3.85249 4.46238ZM1.79004 4.45266L1.7895 4.55265L1.78957 4.55265L1.79004 4.45266ZM1.18572 3.84751L1.28572 3.84711L1.28572 3.847L1.18572 3.84751ZM1.17519 1.7866L1.27519 1.78609L1.27519 1.78607L1.17519 1.7866ZM2.3903 1.78012L2.2903 1.78065V1.78065L2.3903 1.78012ZM8.60683 7.74817H8.50683V7.7896L8.53613 7.81889L8.60683 7.74817ZM10.4546 9.59521L10.3839 9.66594L10.3852 9.66716L10.4546 9.59521ZM9.59593 10.4547L9.66784 10.3852L9.66665 10.384L9.59593 10.4547ZM7.39253 8.25124H7.29253V8.29266L7.32181 8.32195L7.39253 8.25124ZM7.39253 4.75969H7.49253H7.39253ZM2.39354 2.38527L2.46421 2.45602C5.49871 -0.574589 10.4336 -0.543561 13.4881 2.51186L13.5588 2.44116L13.6295 2.37046C10.4983 -0.761696 5.43686 -0.795476 2.32288 2.31451L2.39354 2.38527ZM13.5588 2.44116L13.4881 2.51187C16.5443 5.56813 16.5753 10.5056 13.54 13.5402L13.6107 13.6109L13.6814 13.6816C16.7962 10.5675 16.7624 5.50341 13.6295 2.37046L13.5588 2.44116ZM13.6107 13.6109L13.54 13.5402C10.5047 16.5748 5.56817 16.5446 2.51205 13.4883L2.44134 13.559L2.37063 13.6298C5.50349 16.7627 10.5666 16.7957 13.6814 13.6816L13.6107 13.6109ZM2.44134 13.559L2.5119 13.4882C1.65232 12.6323 1.00286 11.5888 0.614537 10.4396L0.519799 10.4716L0.425062 10.5036C0.823286 11.6821 1.48929 12.7522 2.37078 13.6299L2.44134 13.559ZM0.519799 10.4716L0.614537 10.4396C0.22621 9.29038 0.109585 8.06679 0.273824 6.86492L0.174744 6.85138L0.0756652 6.83784C-0.0927589 8.07034 0.0268377 9.32511 0.425062 10.5036L0.519799 10.4716ZM0.174744 6.85138L0.273825 6.8649C0.292045 6.73144 0.362536 6.61068 0.46979 6.52919L0.409292 6.44956L0.348794 6.36994C0.199305 6.48352 0.101057 6.65183 0.0756633 6.83785L0.174744 6.85138ZM0.409292 6.44956L0.46979 6.52919C0.577043 6.4477 0.712274 6.41215 0.845732 6.43037L0.859259 6.33129L0.872786 6.23221C0.686769 6.20681 0.498283 6.25636 0.348794 6.36994L0.409292 6.44956ZM0.859259 6.33129L0.845732 6.43037C0.979191 6.44859 1.09995 6.51908 1.18143 6.62634L1.26106 6.56585L1.34069 6.50535C1.22711 6.35586 1.0588 6.2576 0.872786 6.23221L0.859259 6.33129ZM1.26106 6.56585L1.18143 6.62634C1.26292 6.7336 1.29847 6.86884 1.28025 7.0023L1.37933 7.01583L1.47841 7.02936C1.5038 6.84334 1.45426 6.65485 1.34069 6.50535L1.26106 6.56585ZM1.37933 7.01583L1.28025 7.00227C1.13695 8.04911 1.23839 9.11492 1.57661 10.1159L1.67135 10.0839L1.76609 10.0519C1.43777 9.0802 1.33929 8.04559 1.4784 7.02939L1.37933 7.01583ZM1.67135 10.0839L1.57661 10.1159C1.91483 11.1169 2.48061 12.0258 3.22947 12.7712L3.30002 12.7003L3.37056 12.6295C2.64362 11.9059 2.09441 11.0236 1.76609 10.0519L1.67135 10.0839ZM3.30002 12.7003L3.22932 12.7711C5.89641 15.4374 10.1907 15.4541 12.8227 12.8229L12.752 12.7522L12.6813 12.6815C10.1287 15.2333 5.96103 15.2192 3.37072 12.6296L3.30002 12.7003ZM12.752 12.7522L12.8227 12.8229C15.4538 10.1908 15.4371 5.89636 12.7709 3.22918L12.7001 3.29988L12.6294 3.37057C15.2189 5.96097 15.233 10.1289 12.6813 12.6815L12.752 12.7522ZM12.7001 3.29988L12.7708 3.22916C10.1054 0.564434 5.81353 0.546081 3.18157 3.17402L3.25223 3.24479L3.32288 3.31555C5.87541 0.766923 10.0407 0.782594 12.6294 3.3706L12.7001 3.29988ZM3.25223 3.24479L3.25182 3.34479L3.85776 3.34722L3.85816 3.24722L3.85856 3.14722L3.25263 3.14479L3.25223 3.24479ZM3.85816 3.24722L3.8577 3.34722C3.92435 3.34753 3.99029 3.36097 4.05175 3.38676L4.09045 3.29455L4.12915 3.20235C4.04347 3.16639 3.95155 3.14765 3.85863 3.14722L3.85816 3.24722ZM4.09045 3.29455L4.05175 3.38676C4.11321 3.41256 4.16899 3.45021 4.2159 3.49756L4.28694 3.42718L4.35798 3.3568C4.29259 3.29079 4.21483 3.23831 4.12915 3.20235L4.09045 3.29455ZM4.28694 3.42718L4.2159 3.49756C4.26281 3.54491 4.29994 3.60104 4.32516 3.66274L4.41772 3.62491L4.51029 3.58707C4.47513 3.50106 4.42338 3.42281 4.35798 3.3568L4.28694 3.42718ZM4.41772 3.62491L4.32516 3.66274C4.35038 3.72444 4.3632 3.79051 4.36289 3.85717L4.46288 3.85763L4.56288 3.8581C4.56332 3.76518 4.54544 3.67308 4.51029 3.58707L4.41772 3.62491ZM4.46288 3.85763L4.36289 3.85717C4.36257 3.92382 4.34914 3.98977 4.32334 4.05123L4.41555 4.08993L4.50776 4.12863C4.54372 4.04295 4.56245 3.95102 4.56288 3.8581L4.46288 3.85763ZM4.41555 4.08993L4.32334 4.05123C4.29755 4.11269 4.2599 4.16847 4.21255 4.21539L4.28293 4.28643L4.35331 4.35747C4.41932 4.29207 4.4718 4.21431 4.50776 4.12863L4.41555 4.08993ZM4.28293 4.28643L4.21255 4.21539C4.1652 4.2623 4.10907 4.29943 4.04737 4.32465L4.08521 4.41721L4.12305 4.50978C4.20906 4.47462 4.2873 4.42286 4.35331 4.35747L4.28293 4.28643ZM4.08521 4.41721L4.04737 4.32465C3.98567 4.34987 3.91961 4.36269 3.85296 4.36238L3.85249 4.46238L3.85203 4.56238C3.94494 4.56281 4.03704 4.54494 4.12305 4.50978L4.08521 4.41721ZM3.85249 4.46238L3.85296 4.36238L1.79051 4.35266L1.79004 4.45266L1.78957 4.55265L3.85202 4.56238L3.85249 4.46238ZM1.79004 4.45266L1.79057 4.35266C1.65678 4.35194 1.52868 4.29843 1.43414 4.20376L1.36338 4.27442L1.29262 4.34508C1.42441 4.47706 1.60299 4.55166 1.7895 4.55265L1.79004 4.45266ZM1.36338 4.27442L1.43414 4.20376C1.33959 4.10909 1.28625 3.98091 1.28572 3.84711L1.18572 3.84751L1.08572 3.84791C1.08646 4.03442 1.16082 4.2131 1.29262 4.34508L1.36338 4.27442ZM1.18572 3.84751L1.28572 3.847L1.27519 1.78609L1.17519 1.7866L1.07519 1.78711L1.08572 3.84802L1.18572 3.84751ZM1.17519 1.7866L1.27519 1.78607C1.27483 1.71941 1.28761 1.65333 1.31279 1.59162L1.2202 1.55384L1.12761 1.51607C1.09251 1.6021 1.07469 1.69421 1.07519 1.78713L1.17519 1.7866ZM1.2202 1.55384L1.31279 1.59162C1.33797 1.5299 1.37506 1.47374 1.42194 1.42636L1.35085 1.35603L1.27976 1.2857C1.21441 1.35175 1.16271 1.43003 1.12761 1.51607L1.2202 1.55384ZM1.35085 1.35603L1.42194 1.42636C1.46882 1.37897 1.52457 1.34129 1.58601 1.31545L1.54725 1.22327L1.50849 1.13109C1.42283 1.1671 1.34511 1.21964 1.27976 1.2857L1.35085 1.35603ZM1.54725 1.22327L1.58601 1.31545C1.64746 1.28961 1.71339 1.27613 1.78004 1.27578L1.77951 1.17578L1.77897 1.07578C1.68605 1.07628 1.59414 1.09507 1.50849 1.13109L1.54725 1.22327ZM1.77951 1.17578L1.78004 1.27578C1.84669 1.27542 1.91276 1.2882 1.97448 1.31338L2.01225 1.22079L2.05003 1.1282C1.964 1.0931 1.87189 1.07529 1.77897 1.07578L1.77951 1.17578ZM2.01225 1.22079L1.97448 1.31338C2.03619 1.33856 2.09235 1.37565 2.13973 1.42253L2.21006 1.35144L2.2804 1.28036C2.21434 1.215 2.13607 1.1633 2.05003 1.1282L2.01225 1.22079ZM2.21006 1.35144L2.13973 1.42253C2.18711 1.46941 2.2248 1.52517 2.25063 1.58661L2.34282 1.54785L2.435 1.50909C2.39898 1.42344 2.34645 1.34571 2.2804 1.28036L2.21006 1.35144ZM2.34282 1.54785L2.25063 1.58661C2.27647 1.64806 2.28995 1.71399 2.2903 1.78065L2.3903 1.78012L2.4903 1.77959C2.48981 1.68667 2.47101 1.59475 2.435 1.50909L2.34282 1.54785ZM2.3903 1.78012L2.2903 1.78065L2.29355 2.3858L2.39354 2.38527L2.49354 2.38473L2.4903 1.77958L2.3903 1.78012ZM7.99927 4.1513V4.2513C8.13388 4.2513 8.26298 4.30477 8.35817 4.39996L8.42888 4.32925L8.49959 4.25854C8.3669 4.12585 8.18693 4.0513 7.99927 4.0513V4.1513ZM8.42888 4.32925L8.35817 4.39996C8.45335 4.49515 8.50683 4.62426 8.50683 4.75888H8.60683H8.70683C8.70683 4.57122 8.63229 4.39124 8.49959 4.25854L8.42888 4.32925ZM8.60683 4.75888H8.50683V7.74817H8.60683H8.70683V4.75888H8.60683ZM8.60683 7.74817L8.53613 7.81889L10.3839 9.66593L10.4546 9.59521L10.5253 9.52448L8.67753 7.67744L8.60683 7.74817ZM10.4546 9.59521L10.3852 9.66716C10.4337 9.71397 10.4724 9.76996 10.499 9.83187L10.5909 9.79236L10.6827 9.75285C10.6456 9.66654 10.5917 9.58849 10.5241 9.52325L10.4546 9.59521ZM10.5909 9.79236L10.499 9.83187C10.5256 9.89378 10.5397 9.96038 10.5403 10.0278L10.6403 10.0269L10.7403 10.0259C10.7394 9.932 10.7198 9.83916 10.6827 9.75285L10.5909 9.79236ZM10.6403 10.0269L10.5403 10.0278C10.5409 10.0952 10.5281 10.162 10.5026 10.2244L10.5952 10.2622L10.6877 10.3001C10.7233 10.2131 10.7411 10.1199 10.7403 10.0259L10.6403 10.0269ZM10.5952 10.2622L10.5026 10.2244C10.4771 10.2868 10.4394 10.3435 10.3918 10.3912L10.4626 10.4618L10.5333 10.5325C10.5997 10.4661 10.6522 10.387 10.6877 10.3001L10.5952 10.2622ZM10.4626 10.4618L10.3918 10.3912C10.3442 10.4389 10.2875 10.4766 10.2252 10.5021L10.2631 10.5947L10.301 10.6872C10.3879 10.6516 10.4669 10.599 10.5333 10.5325L10.4626 10.4618ZM10.2631 10.5947L10.2252 10.5021C10.1628 10.5277 10.096 10.5405 10.0286 10.54L10.0278 10.64L10.0269 10.74C10.1209 10.7408 10.214 10.7228 10.301 10.6872L10.2631 10.5947ZM10.0278 10.64L10.0286 10.54C9.96118 10.5394 9.89457 10.5255 9.83263 10.4989L9.79321 10.5908L9.75378 10.6827C9.84012 10.7197 9.93298 10.7392 10.0269 10.74L10.0278 10.64ZM9.79321 10.5908L9.83263 10.4989C9.7707 10.4723 9.71467 10.4337 9.66783 10.3852L9.59593 10.4547L9.52404 10.5242C9.58934 10.5918 9.66744 10.6456 9.75378 10.6827L9.79321 10.5908ZM9.59593 10.4547L9.66665 10.384L7.46324 8.18053L7.39253 8.25124L7.32181 8.32195L9.52522 10.5254L9.59593 10.4547ZM7.39253 8.25124H7.49253V4.75969H7.39253H7.29253V8.25124H7.39253ZM7.39253 4.75969H7.49253C7.49253 4.62507 7.546 4.49596 7.64119 4.40077L7.57048 4.33006L7.49976 4.25935C7.36707 4.39205 7.29253 4.57203 7.29253 4.75969H7.39253ZM7.57048 4.33006L7.64119 4.40077C7.73637 4.30558 7.86547 4.25211 8.00008 4.25211V4.15211V4.05211C7.81243 4.05211 7.63246 4.12666 7.49976 4.25935L7.57048 4.33006Z" fill="#849D65" mask="url(#path-1-outside-1_1452_1875)"/>
</svg>
