<svg width="16" height="16" viewBox="0 0 16 16" fill="none" xmlns="http://www.w3.org/2000/svg">
    <rect x="0.75" y="0.75" width="14.5" height="14.5" rx="7.25" stroke="#849D65" stroke-width="1.5"/>
    <path d="M8.0013 5.75C7.5413 5.75 7.16797 6.12333 7.16797 6.58333V6.65467C7.16797 6.78728 7.11529 6.91445 7.02152 7.00822C6.92775 7.10199 6.80058 7.15467 6.66797 7.15467C6.53536 7.15467 6.40818 7.10199 6.31442 7.00822C6.22065 6.91445 6.16797 6.78728 6.16797 6.65467V6.58333C6.16797 6.0971 6.36112 5.63079 6.70494 5.28697C7.04876 4.94315 7.51507 4.75 8.0013 4.75H8.07864C8.43728 4.75017 8.78728 4.86014 9.08156 5.06515C9.37584 5.27015 9.6003 5.56035 9.72474 5.89672C9.84918 6.23308 9.86764 6.59949 9.77764 6.94666C9.68764 7.29383 9.49349 7.60512 9.2213 7.83867L8.70797 8.27867C8.64357 8.33457 8.59182 8.40357 8.55618 8.48105C8.52055 8.55853 8.50184 8.64272 8.5013 8.728V9.08333C8.5013 9.21594 8.44862 9.34312 8.35486 9.43689C8.26109 9.53065 8.13391 9.58333 8.0013 9.58333C7.86869 9.58333 7.74152 9.53065 7.64775 9.43689C7.55398 9.34312 7.5013 9.21594 7.5013 9.08333V8.728C7.5013 8.26333 7.70397 7.822 8.05664 7.52L8.57064 7.08C8.68792 6.97947 8.77159 6.84543 8.8104 6.69591C8.8492 6.5464 8.84127 6.38858 8.78768 6.24371C8.73409 6.09883 8.6374 5.97385 8.51064 5.88558C8.38387 5.79732 8.23311 5.75 8.07864 5.75H8.0013ZM8.0013 11.25C8.17811 11.25 8.34768 11.1798 8.47271 11.0547C8.59773 10.9297 8.66797 10.7601 8.66797 10.5833C8.66797 10.4065 8.59773 10.237 8.47271 10.1119C8.34768 9.9869 8.17811 9.91667 8.0013 9.91667C7.82449 9.91667 7.65492 9.9869 7.5299 10.1119C7.40487 10.237 7.33464 10.4065 7.33464 10.5833C7.33464 10.7601 7.40487 10.9297 7.5299 11.0547C7.65492 11.1798 7.82449 11.25 8.0013 11.25Z" fill="#849D65"/>
</svg>
