<svg width="16" height="16" viewBox="0 0 16 16" fill="none" xmlns="http://www.w3.org/2000/svg">
    <path d="M8 0.12207C8.06139 0.12207 8.12114 0.13521 8.17969 0.15332L8.18262 0.145508L8.25391 0.177734L8.31934 0.207031H8.31836L13.0098 2.33789H13.0107L13.0801 2.37012L13.082 2.37109L13.1475 2.40039L13.1455 2.40234C13.6016 2.63898 13.8982 3.1181 13.9238 3.65137H13.9268V9.28906H13.9248C13.9143 10.1075 13.7316 10.9119 13.3896 11.6436L13.2285 11.9619C12.7832 12.7751 12.1464 13.451 11.3818 13.9287L11.3838 13.9316L11.3223 13.9688L8.37988 15.749L8.38086 15.75L8.31934 15.7861L8.25195 15.8271L8.24902 15.8223C8.17044 15.8572 8.08609 15.876 8 15.876C7.91361 15.876 7.82882 15.8574 7.75 15.8223L7.74805 15.8271L7.68066 15.7861L7.61914 15.75V15.749L4.67773 13.9688L4.61621 13.9316L4.61719 13.9287C3.95117 13.5124 3.38185 12.9459 2.95215 12.2686L2.77148 11.9619C2.32623 11.1488 2.0874 10.2287 2.0752 9.29004H2.07324V3.65039H2.07812C2.09081 3.38914 2.16616 3.13472 2.30273 2.91504L2.3623 2.82715C2.4927 2.64759 2.66052 2.50166 2.85352 2.40137V2.39941L2.9082 2.37402C2.91134 2.37257 2.91482 2.37155 2.91797 2.37012L2.98926 2.33789L7.74512 0.177734L7.81641 0.145508L7.81934 0.15332C7.87816 0.135027 7.93829 0.12207 8 0.12207ZM3.4248 3.61035C3.38469 3.63005 3.3565 3.6743 3.35645 3.72559V9.21484C3.35655 9.94282 3.53734 10.6579 3.88184 11.2871C4.18337 11.8378 4.60047 12.3055 5.09863 12.6553L5.31738 12.7979L5.37793 12.834H5.37695L8 14.4219L10.6826 12.7979C11.2775 12.4375 11.7726 11.9162 12.1172 11.2871C12.4617 10.6581 12.6433 9.9436 12.6436 9.21582V3.72656L12.6387 3.68945L12.624 3.65625C12.6176 3.6459 12.6102 3.63652 12.6016 3.62891L12.5742 3.61035L12.5088 3.58105V3.58008L8 1.53223L3.4248 3.61035Z" fill="#849D65" stroke="#849D65" stroke-width="0.15"/>
</svg>
