<svg width="16" height="16" viewBox="0 0 16 16" fill="none" xmlns="http://www.w3.org/2000/svg">
    <g clip-path="url(#clip0_1359_5911)">
        <mask id="path-1-outside-1_1359_5911" maskUnits="userSpaceOnUse" x="-0.847656" y="-0.84668" width="17" height="17" fill="black">
            <rect fill="white" x="-0.847656" y="-0.84668" width="17" height="17"/>
            <path d="M7.99927 15.8472C12.333 15.8472 15.8462 12.334 15.8462 8.00024C15.8462 3.6665 12.333 0.15332 7.99927 0.15332C3.66552 0.15332 0.152344 3.6665 0.152344 8.00024C0.152344 12.334 3.66552 15.8472 7.99927 15.8472ZM7.99927 1.27431C8.5777 1.27431 9.27888 1.80566 9.86852 3.08303C10.0776 3.53703 10.2597 4.05997 10.4066 4.63728H5.59194C5.73879 4.05997 5.92095 3.53647 6.13002 3.08303C6.71966 1.80566 7.42084 1.27431 7.99927 1.27431ZM5.11272 2.61333C4.83808 3.20745 4.61052 3.89014 4.43957 4.63728H2.17293C2.94888 3.29582 4.1629 2.2623 5.611 1.71037C5.42187 1.99797 5.2551 2.29965 5.11216 2.61277M4.23162 5.75827C4.12617 6.50091 4.0741 7.25015 4.07581 8.00024C4.07581 8.77709 4.13017 9.53039 4.23218 10.2422H1.65615C1.4022 9.52205 1.27274 8.76388 1.27333 8.00024C1.27333 7.21443 1.40785 6.45944 1.65615 5.75827H4.23162ZM4.43901 11.3632C4.60996 12.1104 4.83752 12.793 5.1116 13.3872C5.25901 13.7066 5.42548 14.0104 5.61044 14.2896C4.16263 13.7377 2.94884 12.7044 2.17293 11.3632H4.43901ZM5.59194 11.3632H10.4055C10.2741 11.8967 10.094 12.417 9.8674 12.9175C9.27944 14.1948 8.57826 14.7262 7.99927 14.7262C7.42028 14.7262 6.71966 14.1948 6.13002 12.9175C5.90343 12.417 5.72331 11.8967 5.59194 11.3632ZM10.6325 10.2422H5.36494C5.25124 9.50034 5.19503 8.75078 5.19679 8.00024C5.19679 7.21163 5.25677 6.45776 5.36494 5.75827H10.6336C10.7418 6.45776 10.8017 7.21163 10.8017 8.00024C10.8017 8.78886 10.7418 9.54272 10.6336 10.2422M11.5595 11.3632H13.8262C13.0501 12.7045 11.8361 13.7378 10.3881 14.2896C10.5731 14.0104 10.7395 13.7066 10.8869 13.3872C11.161 12.793 11.3886 12.1104 11.5595 11.3632ZM14.3429 10.2422H11.7669C11.8689 9.53039 11.9233 8.77709 11.9233 8.00024C11.9233 7.2234 11.8689 6.47009 11.7669 5.75827H14.3429C14.5967 6.47847 14.726 7.23664 14.7252 8.00024C14.7252 8.78606 14.5907 9.54104 14.3424 10.2422M10.3875 1.71037C11.8356 2.2623 13.0497 3.29582 13.8256 4.63728H11.5584C11.3875 3.89014 11.1599 3.20745 10.8858 2.61333C10.7429 2.30021 10.5761 1.99853 10.387 1.71093"/>
        </mask>
        <path d="M7.99927 15.8472C12.333 15.8472 15.8462 12.334 15.8462 8.00024C15.8462 3.6665 12.333 0.15332 7.99927 0.15332C3.66552 0.15332 0.152344 3.6665 0.152344 8.00024C0.152344 12.334 3.66552 15.8472 7.99927 15.8472ZM7.99927 1.27431C8.5777 1.27431 9.27888 1.80566 9.86852 3.08303C10.0776 3.53703 10.2597 4.05997 10.4066 4.63728H5.59194C5.73879 4.05997 5.92095 3.53647 6.13002 3.08303C6.71966 1.80566 7.42084 1.27431 7.99927 1.27431ZM5.11272 2.61333C4.83808 3.20745 4.61052 3.89014 4.43957 4.63728H2.17293C2.94888 3.29582 4.1629 2.2623 5.611 1.71037C5.42187 1.99797 5.2551 2.29965 5.11216 2.61277M4.23162 5.75827C4.12617 6.50091 4.0741 7.25015 4.07581 8.00024C4.07581 8.77709 4.13017 9.53039 4.23218 10.2422H1.65615C1.4022 9.52205 1.27274 8.76388 1.27333 8.00024C1.27333 7.21443 1.40785 6.45944 1.65615 5.75827H4.23162ZM4.43901 11.3632C4.60996 12.1104 4.83752 12.793 5.1116 13.3872C5.25901 13.7066 5.42548 14.0104 5.61044 14.2896C4.16263 13.7377 2.94884 12.7044 2.17293 11.3632H4.43901ZM5.59194 11.3632H10.4055C10.2741 11.8967 10.094 12.417 9.8674 12.9175C9.27944 14.1948 8.57826 14.7262 7.99927 14.7262C7.42028 14.7262 6.71966 14.1948 6.13002 12.9175C5.90343 12.417 5.72331 11.8967 5.59194 11.3632ZM10.6325 10.2422H5.36494C5.25124 9.50034 5.19503 8.75078 5.19679 8.00024C5.19679 7.21163 5.25677 6.45776 5.36494 5.75827H10.6336C10.7418 6.45776 10.8017 7.21163 10.8017 8.00024C10.8017 8.78886 10.7418 9.54272 10.6336 10.2422M11.5595 11.3632H13.8262C13.0501 12.7045 11.8361 13.7378 10.3881 14.2896C10.5731 14.0104 10.7395 13.7066 10.8869 13.3872C11.161 12.793 11.3886 12.1104 11.5595 11.3632ZM14.3429 10.2422H11.7669C11.8689 9.53039 11.9233 8.77709 11.9233 8.00024C11.9233 7.2234 11.8689 6.47009 11.7669 5.75827H14.3429C14.5967 6.47847 14.726 7.23664 14.7252 8.00024C14.7252 8.78606 14.5907 9.54104 14.3424 10.2422M10.3875 1.71037C11.8356 2.2623 13.0497 3.29582 13.8256 4.63728H11.5584C11.3875 3.89014 11.1599 3.20745 10.8858 2.61333C10.7429 2.30021 10.5761 1.99853 10.387 1.71093" fill="#849D65"/>
        <path d="M9.86852 3.08303L10.0048 3.02028L10.0047 3.02016L9.86852 3.08303ZM10.4066 4.63728V4.78728H10.5995L10.552 4.6003L10.4066 4.63728ZM5.59194 4.63728L5.44657 4.6003L5.39901 4.78728H5.59194V4.63728ZM6.13002 3.08303L5.99383 3.02016L5.9938 3.02022L6.13002 3.08303ZM4.43957 4.63728V4.78728H4.55912L4.58579 4.67073L4.43957 4.63728ZM2.17293 4.63728L2.04308 4.56217L1.91287 4.78728H2.17293V4.63728ZM5.611 1.71037L5.73633 1.79279L5.99145 1.40484L5.55758 1.57021L5.611 1.71037ZM4.23162 5.75827L4.38013 5.77935L4.40443 5.60827H4.23162V5.75827ZM4.07581 8.00024L4.22581 8.00024L4.22581 7.9999L4.07581 8.00024ZM4.23218 10.2422V10.3922H4.40521L4.38067 10.2209L4.23218 10.2422ZM1.65615 10.2422L1.51469 10.2921L1.54999 10.3922H1.65615V10.2422ZM1.27333 8.00024L1.42333 8.00036V8.00024H1.27333ZM1.65615 5.75827V5.60827H1.55014L1.51475 5.70819L1.65615 5.75827ZM4.43901 11.3632L4.58523 11.3298L4.55856 11.2132H4.43901V11.3632ZM5.1116 13.3872L4.97539 13.45L4.9754 13.45L5.1116 13.3872ZM5.61044 14.2896L5.55701 14.4297L5.99352 14.5961L5.73548 14.2067L5.61044 14.2896ZM2.17293 11.3632V11.2132H1.91285L2.04309 11.4383L2.17293 11.3632ZM5.59194 11.3632V11.2132H5.40052L5.44629 11.3991L5.59194 11.3632ZM10.4055 11.3632L10.5511 11.3991L10.5969 11.2132H10.4055V11.3632ZM9.8674 12.9175L10.0037 12.9802L10.004 12.9793L9.8674 12.9175ZM6.13002 12.9175L5.99337 12.9793L5.99383 12.9803L6.13002 12.9175ZM5.36494 10.2422L5.21667 10.2649L5.23618 10.3922H5.36494V10.2422ZM5.19679 8.00024L5.34679 8.0006V8.00024H5.19679ZM5.36494 5.75827V5.60827H5.23636L5.21671 5.73534L5.36494 5.75827ZM10.6336 5.75827L10.7818 5.73534L10.7622 5.60827H10.6336V5.75827ZM11.5595 11.3632V11.2132H11.44L11.4133 11.3298L11.5595 11.3632ZM13.8262 11.3632L13.956 11.4383L14.0863 11.2132H13.8262V11.3632ZM10.3881 14.2896L10.2631 14.2067L10.0051 14.596L10.4415 14.4297L10.3881 14.2896ZM10.8869 13.3872L11.0231 13.45L11.0231 13.45L10.8869 13.3872ZM11.7669 10.2422L11.6184 10.2209L11.5939 10.3922H11.7669V10.2422ZM11.7669 5.75827V5.60827H11.5939L11.6184 5.77954L11.7669 5.75827ZM14.3429 5.75827L14.4844 5.70842L14.4491 5.60827H14.3429V5.75827ZM14.7252 8.00024L14.5752 8.00009V8.00024H14.7252ZM13.8256 4.63728V4.78728H14.0857L13.9555 4.56217L13.8256 4.63728ZM11.5584 4.63728L11.4122 4.67073L11.4389 4.78728H11.5584V4.63728ZM10.8858 2.61333L10.7494 2.67562L10.7496 2.67617L10.8858 2.61333ZM7.99927 15.8472V15.9972C12.4159 15.9972 15.9962 12.4168 15.9962 8.00024H15.8462H15.6962C15.6962 12.2511 12.2502 15.6972 7.99927 15.6972V15.8472ZM15.8462 8.00024H15.9962C15.9962 3.58366 12.4159 0.00332031 7.99927 0.00332031V0.15332V0.30332C12.2502 0.30332 15.6962 3.74934 15.6962 8.00024H15.8462ZM7.99927 0.15332V0.00332031C3.58268 0.00332031 0.00234374 3.58366 0.00234374 8.00024H0.152344H0.302344C0.302344 3.74934 3.74837 0.30332 7.99927 0.30332V0.15332ZM0.152344 8.00024H0.00234374C0.00234374 12.4168 3.58268 15.9972 7.99927 15.9972V15.8472V15.6972C3.74837 15.6972 0.302344 12.2511 0.302344 8.00024H0.152344ZM7.99927 1.27431V1.42431C8.48448 1.42431 9.14821 1.88049 9.73233 3.14589L9.86852 3.08303L10.0047 3.02016C9.40954 1.73083 8.67091 1.12431 7.99927 1.12431V1.27431ZM9.86852 3.08303L9.73227 3.14577C9.93698 3.59032 10.1163 4.10447 10.2612 4.67425L10.4066 4.63728L10.552 4.6003C10.4032 4.01546 10.2182 3.48373 10.0048 3.02028L9.86852 3.08303ZM10.4066 4.63728V4.48728H5.59194V4.63728V4.78728H10.4066V4.63728ZM5.59194 4.63728L5.73731 4.67425C5.88226 4.10443 6.06156 3.58975 6.26624 3.14583L6.13002 3.08303L5.9938 3.02022C5.78035 3.48318 5.59533 4.01551 5.44657 4.6003L5.59194 4.63728ZM6.13002 3.08303L6.26621 3.14589C6.85033 1.88049 7.51405 1.42431 7.99927 1.42431V1.27431V1.12431C7.32762 1.12431 6.58899 1.73083 5.99383 3.02016L6.13002 3.08303ZM5.11272 2.61333L4.97656 2.55039C4.69693 3.15532 4.46626 3.8481 4.29335 4.60382L4.43957 4.63728L4.58579 4.67073C4.75478 3.93218 4.97923 3.25959 5.24888 2.67627L5.11272 2.61333ZM4.43957 4.63728V4.48728H2.17293V4.63728V4.78728H4.43957V4.63728ZM2.17293 4.63728L2.30277 4.71238C3.06148 3.40074 4.24851 2.3902 5.66442 1.85054L5.611 1.71037L5.55758 1.57021C4.07729 2.1344 2.83629 3.19089 2.04308 4.56217L2.17293 4.63728ZM5.611 1.71037L5.48567 1.62796C5.29233 1.92196 5.12184 2.23037 4.97571 2.55048L5.11216 2.61277L5.24861 2.67506C5.38837 2.36893 5.55142 2.07397 5.73633 1.79279L5.611 1.71037ZM4.23162 5.75827L4.08311 5.73718C3.97665 6.48692 3.92408 7.24333 3.92581 8.00059L4.07581 8.00024L4.22581 7.9999C4.22412 7.25698 4.27569 6.5149 4.38013 5.77935L4.23162 5.75827ZM4.07581 8.00024H3.92581C3.92581 8.78402 3.98065 9.54444 4.0837 10.2635L4.23218 10.2422L4.38067 10.2209C4.27969 9.51635 4.22581 8.77016 4.22581 8.00024H4.07581ZM4.23218 10.2422V10.0922H1.65615V10.2422V10.3922H4.23218V10.2422ZM1.65615 10.2422L1.79761 10.1923C1.54932 9.48822 1.42275 8.74697 1.42333 8.00036L1.27333 8.00024L1.12333 8.00013C1.12273 8.7808 1.25507 9.55587 1.51469 10.2921L1.65615 10.2422ZM1.27333 8.00024H1.42333C1.42333 7.23164 1.55489 6.49358 1.79755 5.80834L1.65615 5.75827L1.51475 5.70819C1.26081 6.42531 1.12333 7.19722 1.12333 8.00024H1.27333ZM1.65615 5.75827V5.90827H4.23162V5.75827V5.60827H1.65615V5.75827ZM4.43901 11.3632L4.29278 11.3967C4.4657 12.1524 4.69636 12.8451 4.97539 13.45L5.1116 13.3872L5.2478 13.3243C4.97868 12.7409 4.75421 12.0683 4.58523 11.3298L4.43901 11.3632ZM5.1116 13.3872L4.9754 13.45C5.12561 13.7755 5.29571 14.0861 5.4854 14.3724L5.61044 14.2896L5.73548 14.2067C5.55525 13.9347 5.39241 13.6377 5.2478 13.3243L5.1116 13.3872ZM5.61044 14.2896L5.66387 14.1494C4.24824 13.6098 3.06143 12.5994 2.30276 11.2881L2.17293 11.3632L2.04309 11.4383C2.83625 12.8093 4.07702 13.8656 5.55701 14.4297L5.61044 14.2896ZM2.17293 11.3632V11.5132H4.43901V11.3632V11.2132H2.17293V11.3632ZM5.59194 11.3632V11.5132H10.4055V11.3632V11.2132H5.59194V11.3632ZM10.4055 11.3632L10.2598 11.3273C10.1306 11.8519 9.95355 12.3635 9.73075 12.8556L9.8674 12.9175L10.004 12.9793C10.2344 12.4704 10.4176 11.9415 10.5511 11.3991L10.4055 11.3632ZM9.8674 12.9175L9.73114 12.8547C9.14875 14.12 8.48502 14.5762 7.99927 14.5762V14.7262V14.8762C8.67149 14.8762 9.41012 14.2697 10.0037 12.9802L9.8674 12.9175ZM7.99927 14.7262V14.5762C7.51351 14.5762 6.85034 14.12 6.26621 12.8546L6.13002 12.9175L5.99383 12.9803C6.58898 14.2696 7.32704 14.8762 7.99927 14.8762V14.7262ZM6.13002 12.9175L6.26667 12.8556C6.04387 12.3635 5.86676 11.8519 5.73759 11.3273L5.59194 11.3632L5.44629 11.3991C5.57986 11.9415 5.76299 12.4704 5.99337 12.9793L6.13002 12.9175ZM10.6325 10.2422V10.0922H5.36494V10.2422V10.3922H10.6325V10.2422ZM5.36494 10.2422L5.51321 10.2195C5.40068 9.48525 5.34504 8.74341 5.34679 8.0006L5.19679 8.00024L5.04679 7.99989C5.04501 8.75816 5.1018 9.51543 5.21667 10.2649L5.36494 10.2422ZM5.19679 8.00024H5.34679C5.34679 7.21916 5.4062 6.47296 5.51318 5.78119L5.36494 5.75827L5.21671 5.73534C5.10734 6.44256 5.04679 7.2041 5.04679 8.00024H5.19679ZM5.36494 5.75827V5.90827H10.6336V5.75827V5.60827H5.36494V5.75827ZM10.6336 5.75827L10.4854 5.78119C10.5923 6.47296 10.6517 7.21916 10.6517 8.00024H10.8017H10.9517C10.9517 7.2041 10.8912 6.44256 10.7818 5.73534L10.6336 5.75827ZM10.8017 8.00024H10.6517C10.6517 8.78133 10.5923 9.52753 10.4854 10.2193L10.6336 10.2422L10.7818 10.2651C10.8912 9.55792 10.9517 8.79639 10.9517 8.00024H10.8017ZM11.5595 11.3632V11.5132H13.8262V11.3632V11.2132H11.5595V11.3632ZM13.8262 11.3632L13.6963 11.2881C12.9375 12.5995 11.7505 13.6099 10.3347 14.1494L10.3881 14.2896L10.4415 14.4297C11.9217 13.8657 13.1627 12.8094 13.956 11.4383L13.8262 11.3632ZM10.3881 14.2896L10.5131 14.3724C10.7028 14.0861 10.8729 13.7755 11.0231 13.45L10.8869 13.3872L10.7507 13.3243C10.6061 13.6377 10.4433 13.9347 10.2631 14.2067L10.3881 14.2896ZM10.8869 13.3872L11.0231 13.45C11.3022 12.8451 11.5328 12.1524 11.7057 11.3967L11.5595 11.3632L11.4133 11.3298C11.2443 12.0683 11.0199 12.7409 10.7507 13.3243L10.8869 13.3872ZM14.3429 10.2422V10.0922H11.7669V10.2422V10.3922H14.3429V10.2422ZM11.7669 10.2422L11.9154 10.2635C12.0184 9.54444 12.0733 8.78402 12.0733 8.00024H11.9233H11.7733C11.7733 8.77016 11.7194 9.51635 11.6184 10.2209L11.7669 10.2422ZM11.9233 8.00024H12.0733C12.0733 7.21647 12.0184 6.45605 11.9154 5.73699L11.7669 5.75827L11.6184 5.77954C11.7194 6.48414 11.7733 7.23033 11.7733 8.00024H11.9233ZM11.7669 5.75827V5.90827H14.3429V5.75827V5.60827H11.7669V5.75827ZM14.3429 5.75827L14.2015 5.80811C14.4496 6.51226 14.576 7.25351 14.5752 8.00009L14.7252 8.00024L14.8752 8.0004C14.876 7.21976 14.7438 6.44469 14.4844 5.70842L14.3429 5.75827ZM14.7252 8.00024H14.5752C14.5752 8.76884 14.4436 9.50691 14.201 10.1922L14.3424 10.2422L14.4838 10.2923C14.7377 9.57518 14.8752 8.80327 14.8752 8.00024H14.7252ZM10.3875 1.71037L10.3341 1.85054C11.75 2.3902 12.9371 3.40074 13.6958 4.71238L13.8256 4.63728L13.9555 4.56217C13.1622 3.19089 11.9212 2.1344 10.441 1.57021L10.3875 1.71037ZM13.8256 4.63728V4.48728H11.5584V4.63728V4.78728H13.8256V4.63728ZM11.5584 4.63728L11.7046 4.60382C11.5317 3.84809 11.3011 3.15536 11.022 2.5505L10.8858 2.61333L10.7496 2.67617C11.0187 3.25955 11.2432 3.93218 11.4122 4.67073L11.5584 4.63728ZM10.8858 2.61333L11.0223 2.55104C10.8761 2.23093 10.7056 1.92252 10.5123 1.62852L10.387 1.71093L10.2616 1.79335C10.4466 2.07453 10.6096 2.36949 10.7494 2.67562L10.8858 2.61333Z" fill="#849D65" mask="url(#path-1-outside-1_1359_5911)"/>
    </g>
    <defs>
        <clipPath id="clip0_1359_5911">
            <rect width="16" height="16" fill="white"/>
        </clipPath>
    </defs>
</svg>
