<svg width="16" height="16" viewBox="0 0 16 16" fill="none" xmlns="http://www.w3.org/2000/svg">
    <path fill-rule="evenodd" clip-rule="evenodd" d="M7.99972 1.23077C7.23707 1.23077 6.50566 1.51172 5.96638 2.01182C5.42711 2.51191 5.12414 3.19019 5.12414 3.89744V6.35897C5.12414 6.69884 4.82704 6.97436 4.46055 6.97436C4.09406 6.97436 3.79696 6.69884 3.79696 6.35897V3.89744C3.79696 2.86377 4.23975 1.87244 5.02792 1.14153C5.81609 0.410621 6.88508 0 7.99972 0C9.11436 0 10.1834 0.410621 10.9715 1.14153C11.7597 1.87244 12.2025 2.86377 12.2025 3.89744V6.35897C12.2025 6.69884 11.9054 6.97436 11.5389 6.97436C11.1724 6.97436 10.8753 6.69884 10.8753 6.35897V3.89744C10.8753 3.19019 10.5723 2.51191 10.0331 2.01182C9.49378 1.51172 8.76237 1.23077 7.99972 1.23077Z" fill="#849D65"/>
    <path fill-rule="evenodd" clip-rule="evenodd" d="M1.14258 6.35897C1.14258 6.01911 1.43968 5.74359 1.80617 5.74359H14.1933C14.5598 5.74359 14.8569 6.01911 14.8569 6.35897V13.7436C14.8569 14.342 14.6005 14.916 14.1442 15.3391C13.6879 15.7623 13.069 16 12.4237 16H3.57576C2.93044 16 2.31155 15.7623 1.85524 15.3391C1.39893 14.916 1.14258 14.342 1.14258 13.7436V6.35897ZM2.46977 6.97436V13.7436C2.46977 14.0156 2.58629 14.2765 2.7937 14.4688C3.00112 14.6612 3.28243 14.7692 3.57576 14.7692H12.4237C12.717 14.7692 12.9983 14.6612 13.2057 14.4688C13.4131 14.2765 13.5297 14.0156 13.5297 13.7436V6.97436H2.46977Z" fill="#849D65"/>
    <path fill-rule="evenodd" clip-rule="evenodd" d="M6.9998 10.872C6.9998 10.3622 7.44545 9.94892 7.99519 9.94892H8.00404C8.55378 9.94892 8.99943 10.3622 8.99943 10.872V10.8802C8.99943 11.39 8.55378 11.8033 8.00404 11.8033H7.99519C7.44545 11.8033 6.9998 11.39 6.9998 10.8802V10.872Z" fill="#849D65"/>
</svg>
