<svg width="16" height="16" viewBox="0 0 16 16" fill="none" xmlns="http://www.w3.org/2000/svg">
    <g clip-path="url(#clip0_1359_5921)">
        <path d="M3.08084 6.15647H1.97491C1.29626 6.15647 0.746094 6.70664 0.746094 7.38528V9.84291C0.746094 10.5215 1.29626 11.0717 1.97491 11.0717H3.08084V6.15647ZM3.08084 6.15647C3.08084 3.44183 5.28146 1.24121 7.99609 1.24121C10.7107 1.24121 12.9113 3.44183 12.9113 6.15647M12.9113 11.0717H14.0173C14.6959 11.0717 15.2461 10.5215 15.2461 9.84291V7.38528C15.2461 6.70664 14.6959 6.15647 14.0173 6.15647H12.9113M12.9113 11.0717V6.15647M12.9113 11.0717C12.9113 12.429 11.811 13.5293 10.4537 13.5293H9.22491M9.22491 13.5293C9.22491 14.208 8.67475 14.7582 7.99609 14.7582C7.31744 14.7582 6.76728 14.208 6.76728 13.5293C6.76728 12.8507 7.31744 12.3005 7.99609 12.3005C8.67475 12.3005 9.22491 12.8507 9.22491 13.5293Z" stroke="#849D65" stroke-width="1.5" stroke-miterlimit="10" stroke-linecap="round" stroke-linejoin="round"/>
    </g>
    <defs>
        <clipPath id="clip0_1359_5921">
            <rect width="16" height="16" fill="white"/>
        </clipPath>
    </defs>
</svg>
