<svg width="140" height="24" viewBox="0 0 140 24" fill="none" xmlns="http://www.w3.org/2000/svg">
<path d="M5.93882 24C5.15123 24 4.40622 23.8929 3.70378 23.6787C3.00134 23.4645 2.3734 23.1539 1.81996 22.747C1.26652 22.3186 0.819514 21.7938 0.478937 21.1727C0.159646 20.5301 0 19.7805 0 18.9237C0 17.8313 0.212861 16.9424 0.638583 16.257C1.0643 15.5502 1.63903 15.0147 2.36276 14.6506C3.10777 14.2865 3.94857 14.0402 4.88516 13.9116C5.82174 13.7617 6.8009 13.6867 7.82264 13.6867H11.1113C11.1113 12.9371 10.9943 12.2945 10.7601 11.759C10.526 11.2021 10.1535 10.7631 9.6426 10.4418C9.15302 10.1205 8.51443 9.95984 7.72685 9.95984C7.21598 9.95984 6.73705 10.0241 6.29004 10.1526C5.86432 10.2597 5.49181 10.4418 5.17252 10.6988C4.87451 10.9344 4.66165 11.245 4.53394 11.6305H0.542795C0.691798 10.7523 0.989803 10.0027 1.43681 9.38153C1.9051 8.73896 2.46919 8.21419 3.12906 7.80723C3.81021 7.40027 4.55522 7.1004 5.36409 6.90763C6.17297 6.69344 6.99248 6.58634 7.82264 6.58634C10.2705 6.58634 12.0479 7.29317 13.1548 8.70683C14.283 10.1205 14.847 12.1017 14.847 14.6506V23.7751H11.3987L11.3029 21.5904C10.8133 22.3186 10.228 22.8541 9.54681 23.1968C8.86565 23.5395 8.20579 23.7537 7.5672 23.8394C6.92862 23.9465 6.38583 24 5.93882 24ZM6.70512 20.8193C7.55656 20.8193 8.31222 20.6586 8.97209 20.3373C9.63195 20.0161 10.1535 19.5663 10.5366 18.988C10.941 18.4096 11.1433 17.7456 11.1433 16.996V16.4498H8.07807C7.5672 16.4498 7.05634 16.4712 6.54547 16.5141C6.05589 16.5355 5.60888 16.6211 5.20445 16.7711C4.80001 16.8996 4.47008 17.1031 4.21464 17.3815C3.9805 17.66 3.86342 18.0562 3.86342 18.5703C3.86342 19.0843 3.99114 19.502 4.24657 19.8233C4.52329 20.1446 4.87451 20.3909 5.30024 20.5622C5.74724 20.7336 6.21554 20.8193 6.70512 20.8193Z" fill="#22A778"/>
<path d="M18.566 23.7751V1.06024H22.4614V23.7751H18.566Z" fill="#22A778"/>
<path d="M26.2365 23.7751V6.84337H29.8126L30.068 8.77108C30.4937 8.19277 30.9514 7.75368 31.441 7.45381C31.9518 7.13253 32.4733 6.90763 33.0055 6.77912C33.5589 6.6506 34.0804 6.58634 34.57 6.58634C35.6343 6.58634 36.539 6.80053 37.284 7.22891C38.0503 7.65729 38.6463 8.29986 39.072 9.15663C39.4977 8.55689 39.9767 8.07497 40.5088 7.71084C41.041 7.3253 41.6051 7.04685 42.2011 6.8755C42.7971 6.68273 43.425 6.58634 44.0849 6.58634C45.3834 6.58634 46.4264 6.86479 47.214 7.42169C48.0015 7.95716 48.5763 8.70683 48.9381 9.67068C49.3 10.6131 49.4809 11.6948 49.4809 12.9157V23.7751H45.5856V14.1687C45.5856 13.7403 45.5643 13.2905 45.5217 12.8193C45.4791 12.3481 45.3621 11.909 45.1705 11.502C45.0002 11.095 44.7448 10.7631 44.4042 10.506C44.0636 10.249 43.5847 10.1205 42.9674 10.1205C42.3501 10.1205 41.8392 10.2597 41.4348 10.5382C41.0516 10.7952 40.7323 11.1486 40.4769 11.5984C40.2428 12.0268 40.0725 12.5087 39.966 13.0442C39.8809 13.5582 39.8383 14.0723 39.8383 14.5863V23.7751H35.943V14.1365C35.943 13.7296 35.911 13.3012 35.8472 12.8514C35.8046 12.3802 35.6982 11.9411 35.5279 11.5341C35.3789 11.1058 35.1235 10.7631 34.7616 10.506C34.421 10.249 33.9421 10.1205 33.3248 10.1205C32.4308 10.1205 31.7496 10.3668 31.2813 10.8594C30.8343 11.3521 30.5257 11.9518 30.3554 12.6586C30.2064 13.3655 30.1319 14.0402 30.1319 14.6827V23.7751H26.2365Z" fill="#22A778"/>
<path d="M58.4473 24C57.6597 24 56.9147 23.8929 56.2122 23.6787C55.5098 23.4645 54.8818 23.1539 54.3284 22.747C53.775 22.3186 53.328 21.7938 52.9874 21.1727C52.6681 20.5301 52.5084 19.7805 52.5084 18.9237C52.5084 17.8313 52.7213 16.9424 53.147 16.257C53.5728 15.5502 54.1475 15.0147 54.8712 14.6506C55.6162 14.2865 56.457 14.0402 57.3936 13.9116C58.3302 13.7617 59.3094 13.6867 60.3311 13.6867H63.6198C63.6198 12.9371 63.5027 12.2945 63.2686 11.759C63.0344 11.2021 62.6619 10.7631 62.151 10.4418C61.6615 10.1205 61.0229 9.95984 60.2353 9.95984C59.7244 9.95984 59.2455 10.0241 58.7985 10.1526C58.3728 10.2597 58.0003 10.4418 57.681 10.6988C57.383 10.9344 57.1701 11.245 57.0424 11.6305H53.0512C53.2002 10.7523 53.4983 10.0027 53.9453 9.38153C54.4136 8.73896 54.9776 8.21419 55.6375 7.80723C56.3187 7.40027 57.0637 7.1004 57.8725 6.90763C58.6814 6.69344 59.5009 6.58634 60.3311 6.58634C62.779 6.58634 64.5564 7.29317 65.6633 8.70683C66.7914 10.1205 67.3555 12.1017 67.3555 14.6506V23.7751H63.9071L63.8114 21.5904C63.3218 22.3186 62.7364 22.8541 62.0553 23.1968C61.3741 23.5395 60.7142 23.7537 60.0757 23.8394C59.4371 23.9465 58.8943 24 58.4473 24ZM59.2136 20.8193C60.065 20.8193 60.8207 20.6586 61.4805 20.3373C62.1404 20.0161 62.6619 19.5663 63.0451 18.988C63.4495 18.4096 63.6517 17.7456 63.6517 16.996V16.4498H60.5865C60.0757 16.4498 59.5648 16.4712 59.0539 16.5141C58.5643 16.5355 58.1173 16.6211 57.7129 16.7711C57.3085 16.8996 56.9785 17.1031 56.7231 17.3815C56.4889 17.66 56.3719 18.0562 56.3719 18.5703C56.3719 19.0843 56.4996 19.502 56.755 19.8233C57.0317 20.1446 57.383 20.3909 57.8087 20.5622C58.2557 20.7336 58.724 20.8193 59.2136 20.8193Z" fill="#22A778"/>
<path d="M88.997 24C88.3797 24 87.7624 23.9357 87.1451 23.8072C86.5278 23.6787 85.9318 23.4538 85.357 23.1325C84.8036 22.8112 84.2927 22.3829 83.8244 21.8474L83.7287 23.7751H79.961V1.06024H83.8564V8.96385C84.4737 8.17135 85.2612 7.58233 86.2191 7.19679C87.1983 6.78982 88.2094 6.58634 89.2524 6.58634C90.9127 6.58634 92.275 6.97189 93.3393 7.74297C94.4249 8.49264 95.2231 9.52075 95.734 10.8273C96.2662 12.1339 96.5322 13.6118 96.5322 15.261C96.5322 16.9103 96.2555 18.3989 95.7021 19.7269C95.1699 21.0335 94.3504 22.0723 93.2435 22.8434C92.1367 23.6145 90.7211 24 88.997 24ZM88.3584 20.5301C89.444 20.5301 90.2954 20.2838 90.9127 19.7912C91.5513 19.2771 92.0089 18.6131 92.2857 17.7992C92.5624 16.9853 92.7007 16.1285 92.7007 15.2289C92.7007 14.3079 92.5517 13.4618 92.2537 12.6908C91.977 11.9197 91.5194 11.2985 90.8808 10.8273C90.2422 10.3561 89.3907 10.1205 88.3264 10.1205C87.3473 10.1205 86.5171 10.3775 85.836 10.8916C85.1761 11.3842 84.6759 12.0375 84.3353 12.8514C83.9947 13.6439 83.8244 14.4685 83.8244 15.3253C83.8244 16.2249 83.9734 17.0709 84.2714 17.8635C84.5907 18.656 85.0803 19.2985 85.7402 19.7912C86.4213 20.2838 87.2941 20.5301 88.3584 20.5301Z" fill="#22A778"/>
<path d="M99.6673 23.7751V6.84337H103.563V23.7751H99.6673ZM101.615 4.88353C100.87 4.88353 100.274 4.65863 99.8269 4.20883C99.3799 3.75903 99.1564 3.17001 99.1564 2.44177C99.1564 1.73494 99.3906 1.15663 99.8588 0.706826C100.327 0.235609 100.913 0 101.615 0C102.296 0 102.881 0.224899 103.371 0.674698C103.861 1.1245 104.105 1.71352 104.105 2.44177C104.105 3.17001 103.871 3.75903 103.403 4.20883C102.935 4.65863 102.339 4.88353 101.615 4.88353Z" fill="#22A778"/>
<path d="M107.338 23.7751V1.06024H111.233V13.6225H113.66L118.098 6.84337H122.472L117.012 14.9076L122.919 23.7751H118.385L113.883 17.0602H111.233V23.7751H107.338Z" fill="#22A778"/>
<path d="M132.303 24C130.558 24 129.068 23.6359 127.833 22.9076C126.62 22.1794 125.694 21.1727 125.055 19.8876C124.438 18.581 124.129 17.0709 124.129 15.3574C124.129 13.6439 124.449 12.1339 125.087 10.8273C125.747 9.49933 126.684 8.46051 127.897 7.71084C129.131 6.96118 130.611 6.58634 132.335 6.58634C133.612 6.58634 134.73 6.82195 135.688 7.29317C136.645 7.74297 137.444 8.36412 138.082 9.15663C138.742 9.94913 139.232 10.8487 139.551 11.8554C139.87 12.8621 140.019 13.9224 139.998 15.0361C139.977 15.2932 139.955 15.5502 139.934 15.8072C139.913 16.0428 139.881 16.2999 139.838 16.5783H128.025C128.088 17.328 128.28 18.0134 128.599 18.6345C128.94 19.2557 129.408 19.7483 130.004 20.1124C130.621 20.4766 131.388 20.6586 132.303 20.6586C132.835 20.6586 133.346 20.5944 133.836 20.4659C134.325 20.3159 134.751 20.1017 135.113 19.8233C135.496 19.5448 135.751 19.1914 135.879 18.7631H139.775C139.498 19.9839 138.987 20.9799 138.242 21.751C137.497 22.5221 136.603 23.0897 135.56 23.4538C134.538 23.8179 133.453 24 132.303 24ZM128.088 13.6546H136.198C136.198 12.9478 136.039 12.3052 135.719 11.7269C135.4 11.1486 134.943 10.6988 134.347 10.3775C133.772 10.0348 133.069 9.86345 132.239 9.86345C131.345 9.86345 130.6 10.0455 130.004 10.4096C129.408 10.7738 128.951 11.245 128.631 11.8233C128.312 12.4016 128.131 13.012 128.088 13.6546Z" fill="#22A778"/>
</svg>
