<svg width="65" height="64" viewBox="0 0 65 64" fill="none" xmlns="http://www.w3.org/2000/svg">
    <rect x="0.5" width="64" height="64" rx="32" fill="#EEEEEE"/>
    <path fill-rule="evenodd" clip-rule="evenodd" d="M32.5 25.6665C33.0523 25.6665 33.5 26.1142 33.5 26.6665V31.9998C33.5 32.5521 33.0523 32.9998 32.5 32.9998C31.9477 32.9998 31.5 32.5521 31.5 31.9998V26.6665C31.5 26.1142 31.9477 25.6665 32.5 25.6665Z" fill="#F85C50"/>
    <path fill-rule="evenodd" clip-rule="evenodd" d="M31.5 37.3335C31.5 36.7812 31.9477 36.3335 32.5 36.3335H32.5133C33.0656 36.3335 33.5133 36.7812 33.5133 37.3335C33.5133 37.8858 33.0656 38.3335 32.5133 38.3335H32.5C31.9477 38.3335 31.5 37.8858 31.5 37.3335Z" fill="#F85C50"/>
    <circle cx="32.5" cy="32" r="15" stroke="#F85C50" stroke-width="2"/>
</svg>
