<svg width="33" height="32" viewBox="0 0 33 32" fill="none" xmlns="http://www.w3.org/2000/svg">
    <path fill-rule="evenodd" clip-rule="evenodd" d="M16.5 9.66699C17.0523 9.66699 17.5 10.1147 17.5 10.667V16.0003C17.5 16.5526 17.0523 17.0003 16.5 17.0003C15.9477 17.0003 15.5 16.5526 15.5 16.0003L15.5 10.667C15.5 10.1147 15.9477 9.66699 16.5 9.66699Z" fill="#F85C50"/>
    <path fill-rule="evenodd" clip-rule="evenodd" d="M15.5 21.334C15.5 20.7817 15.9477 20.334 16.5 20.334H16.5133C17.0656 20.334 17.5133 20.7817 17.5133 21.334C17.5133 21.8863 17.0656 22.334 16.5133 22.334H16.5C15.9477 22.334 15.5 21.8863 15.5 21.334Z" fill="#F85C50"/>
    <circle cx="16.5" cy="16" r="15" stroke="#F85C50" stroke-width="2"/>
</svg>
