<svg width="24" height="24" viewBox="0 0 24 24" fill="none" xmlns="http://www.w3.org/2000/svg">
    <path d="M21.566 3.19874H7.64361C7.28241 3.19825 6.92564 3.27829 6.59926 3.43303C6.27289 3.58778 5.98512 3.81334 5.75688 4.09329L0.539994 10.48C0.190688 10.9097 0 11.4465 0 12.0002C0 12.554 0.190688 13.0908 0.539994 13.5205L5.75688 19.9072C5.9852 20.1873 6.2731 20.4129 6.59963 20.5676C6.92615 20.7224 7.28307 20.8024 7.64441 20.8017H21.5668C22.2097 20.8032 22.8269 20.5497 23.283 20.0967C23.7392 19.6437 23.997 19.0282 24 18.3853V5.61515C23.997 4.97214 23.7391 4.35657 23.2828 3.90354C22.8264 3.45051 22.209 3.19704 21.566 3.19874ZM22.3997 18.3853C22.397 18.604 22.3077 18.8127 22.1514 18.9656C21.9952 19.1186 21.7847 19.2034 21.566 19.2015H7.64361C7.51908 19.2021 7.396 19.1749 7.28332 19.1218C7.17065 19.0688 7.07122 18.9913 6.9923 18.895L1.77861 12.5099C1.6601 12.3665 1.59526 12.1863 1.59526 12.0002C1.59526 11.8142 1.6601 11.634 1.77861 11.4906L6.9923 5.10546C7.07131 5.00904 7.17086 4.93149 7.28368 4.87847C7.39651 4.82545 7.51975 4.7983 7.64441 4.79901H21.5668C21.7853 4.7973 21.9956 4.88221 22.1517 5.03515C22.3078 5.1881 22.397 5.39663 22.3997 5.61515V18.3853Z" fill="#171717"/>
    <path d="M19.1582 8.03944C19.0081 7.88944 18.8046 7.80518 18.5925 7.80518C18.3803 7.80518 18.1768 7.88944 18.0268 8.03944L15.1983 10.8687L12.3698 8.03944C12.2189 7.89369 12.0168 7.81304 11.807 7.81487C11.5972 7.81669 11.3965 7.90084 11.2482 8.04919C11.0998 8.19754 11.0157 8.39823 11.0138 8.60802C11.012 8.81781 11.0927 9.01993 11.2384 9.17084L14.0669 12.0001L11.2384 14.8294C11.0884 14.9795 11.0042 15.1829 11.0042 15.3951C11.0042 15.6073 11.0884 15.8108 11.2384 15.9608C11.3901 16.1077 11.593 16.1899 11.8041 16.1899C12.0153 16.1899 12.2182 16.1077 12.3698 15.9608L15.1983 13.1315L18.0268 15.9608C18.1784 16.1077 18.3813 16.1899 18.5925 16.1899C18.8036 16.1899 19.0065 16.1077 19.1582 15.9608C19.3082 15.8108 19.3924 15.6073 19.3924 15.3951C19.3924 15.1829 19.3082 14.9795 19.1582 14.8294L16.3297 12.0001L19.1582 9.17084C19.3082 9.02079 19.3924 8.81731 19.3924 8.60514C19.3924 8.39297 19.3082 8.18949 19.1582 8.03944Z" fill="#171717"/>
</svg>
