<svg width="16" height="16" viewBox="0 0 16 16" fill="none" xmlns="http://www.w3.org/2000/svg">
    <path fill-rule="evenodd" clip-rule="evenodd" d="M0.594115 1.9628C0.974521 1.55987 1.49046 1.3335 2.02844 1.3335H8.85308C9.39106 1.3335 9.907 1.55987 10.2874 1.9628C10.6678 2.36574 10.8815 2.91225 10.8815 3.48209V4.98811C10.8815 5.343 10.6099 5.63068 10.2749 5.63068C9.93985 5.63068 9.66825 5.343 9.66825 4.98811V3.48209C9.66825 3.25309 9.58236 3.03347 9.42949 2.87154C9.27662 2.70961 9.06928 2.61864 8.85308 2.61864H2.02844C1.81224 2.61864 1.6049 2.70961 1.45203 2.87154C1.29915 3.03347 1.21327 3.25309 1.21327 3.48209V12.5182C1.21327 12.7472 1.29915 12.9669 1.45203 13.1288C1.6049 13.2907 1.81224 13.3817 2.02844 13.3817H8.85308C9.06928 13.3817 9.27662 13.2907 9.42949 13.1288C9.58236 12.9669 9.66825 12.7472 9.66825 12.5182V11.0122C9.66825 10.6573 9.93985 10.3696 10.2749 10.3696C10.6099 10.3696 10.8815 10.6573 10.8815 11.0122V12.5182C10.8815 13.0881 10.6678 13.6346 10.2874 14.0375C9.907 14.4405 9.39106 14.6668 8.85308 14.6668H2.02844C1.49046 14.6668 0.974521 14.4405 0.594115 14.0375C0.21371 13.6346 0 13.0881 0 12.5182V3.48209C0 2.91225 0.21371 2.36574 0.594115 1.9628ZM12.1208 4.53375C12.3577 4.28281 12.7418 4.28281 12.9787 4.53375L15.8223 7.5458C16.0592 7.79674 16.0592 8.20359 15.8223 8.45453L12.9787 11.4666C12.7418 11.7175 12.3577 11.7175 12.1208 11.4666C11.8839 11.2156 11.8839 10.8088 12.1208 10.5578L13.9288 8.64273H5.68957C5.35454 8.64273 5.08294 8.35504 5.08294 8.00016C5.08294 7.64528 5.35454 7.35759 5.68957 7.35759H13.9288L12.1208 5.44248C11.8839 5.19154 11.8839 4.78469 12.1208 4.53375Z" fill="black"/>
</svg>
