<svg width="24" height="24" viewBox="0 0 24 24" fill="none" xmlns="http://www.w3.org/2000/svg">
    <path fill-rule="evenodd" clip-rule="evenodd" d="M0 3.62791C0 1.62427 1.62427 0 3.62791 0H7.11628C7.57866 0 7.95349 0.374831 7.95349 0.837209C7.95349 1.29959 7.57866 1.67442 7.11628 1.67442H3.62791C2.54903 1.67442 1.67442 2.54903 1.67442 3.62791V7.11628C1.67442 7.57866 1.29959 7.95349 0.837209 7.95349C0.374831 7.95349 0 7.57866 0 7.11628V3.62791ZM16.0465 0.837209C16.0465 0.374831 16.4213 0 16.8837 0H20.3721C22.3757 0 24 1.62427 24 3.62791V7.11628C24 7.57866 23.6252 7.95349 23.1628 7.95349C22.7004 7.95349 22.3256 7.57866 22.3256 7.11628V3.62791C22.3256 2.54903 21.451 1.67442 20.3721 1.67442H16.8837C16.4213 1.67442 16.0465 1.29959 16.0465 0.837209ZM7.11628 6.97674C7.57866 6.97674 7.95349 7.35157 7.95349 7.81395V9.90698C7.95349 10.3694 7.57866 10.7442 7.11628 10.7442C6.6539 10.7442 6.27907 10.3694 6.27907 9.90698V7.81395C6.27907 7.35157 6.6539 6.97674 7.11628 6.97674ZM12 6.97674C12.4624 6.97674 12.8372 7.35157 12.8372 7.81395V11.4737C12.8372 12.4794 12.4377 13.444 11.7265 14.1551L11.1966 14.685C10.8697 15.012 10.3396 15.012 10.0127 14.685C9.6857 14.3581 9.6857 13.828 10.0127 13.501L10.5425 12.9711C10.9397 12.574 11.1628 12.0354 11.1628 11.4737V7.81395C11.1628 7.35157 11.5376 6.97674 12 6.97674ZM16.8837 6.97674C17.3461 6.97674 17.7209 7.35157 17.7209 7.81395V9.90698C17.7209 10.3694 17.3461 10.7442 16.8837 10.7442C16.4213 10.7442 16.0465 10.3694 16.0465 9.90698V7.81395C16.0465 7.35157 16.4213 6.97674 16.8837 6.97674ZM8.5741 16.5329C8.5741 16.5329 8.5741 16.5329 8.5741 16.5329L8.57405 16.5328L8.57369 16.532L8.57294 16.5304L8.57168 16.5277L8.57012 16.5244C8.56977 16.5237 8.56971 16.5236 8.56995 16.5241C8.57004 16.5242 8.57018 16.5245 8.57037 16.5249C8.37423 16.1112 7.8811 15.9313 7.46402 16.1231C7.04397 16.3164 6.86012 16.8136 7.05338 17.2337L7.81395 16.8837C7.05338 17.2337 7.0536 17.2341 7.05383 17.2346L7.0543 17.2356L7.05532 17.2378L7.05765 17.2428L7.06351 17.255C7.06795 17.2642 7.07349 17.2754 7.08017 17.2884C7.09352 17.3145 7.11144 17.3482 7.13431 17.3883C7.17999 17.4684 7.24567 17.5748 7.33431 17.6985C7.51139 17.9455 7.78209 18.2643 8.17021 18.5799C8.95833 19.2206 10.19 19.814 12 19.814C13.81 19.814 15.0417 19.2206 15.8298 18.5799C16.2179 18.2643 16.4886 17.9455 16.6657 17.6985C16.7543 17.5748 16.82 17.4684 16.8657 17.3883C16.8886 17.3482 16.9065 17.3145 16.9198 17.2884C16.9265 17.2754 16.932 17.2642 16.9365 17.255L16.9424 17.2428L16.9447 17.2378L16.9457 17.2356L16.9462 17.2346C16.9464 17.2341 16.9466 17.2337 16.186 16.8837L16.9466 17.2337C17.1399 16.8136 16.956 16.3164 16.536 16.1231C16.1189 15.9313 15.6258 16.1112 15.4296 16.5249C15.4295 16.5252 15.4293 16.5256 15.4291 16.526C15.4267 16.5306 15.4208 16.5419 15.4111 16.559C15.3915 16.5933 15.3567 16.6505 15.3047 16.723C15.2005 16.8684 15.0291 17.0729 14.7735 17.2806C14.2744 17.6864 13.4131 18.1395 12 18.1395C10.5869 18.1395 9.72559 17.6864 9.22645 17.2806C8.97094 17.0729 8.79945 16.8684 8.69525 16.723C8.64325 16.6505 8.60852 16.5933 8.58895 16.559C8.57918 16.5419 8.57327 16.5306 8.57094 16.526C8.57072 16.5256 8.57053 16.5252 8.57037 16.5249M8.5741 16.5329C8.57408 16.5328 8.57407 16.5328 8.57405 16.5328L8.5741 16.5329ZM0.837209 16.0465C1.29959 16.0465 1.67442 16.4213 1.67442 16.8837V20.3721C1.67442 21.451 2.54903 22.3256 3.62791 22.3256H7.11628C7.57866 22.3256 7.95349 22.7004 7.95349 23.1628C7.95349 23.6252 7.57866 24 7.11628 24H3.62791C1.62427 24 0 22.3757 0 20.3721V16.8837C0 16.4213 0.374831 16.0465 0.837209 16.0465ZM23.1628 16.0465C23.6252 16.0465 24 16.4213 24 16.8837V20.3721C24 22.3757 22.3757 24 20.3721 24H16.8837C16.4213 24 16.0465 23.6252 16.0465 23.1628C16.0465 22.7004 16.4213 22.3256 16.8837 22.3256H20.3721C21.451 22.3256 22.3256 21.451 22.3256 20.3721V16.8837C22.3256 16.4213 22.7004 16.0465 23.1628 16.0465Z" fill="black"/>
</svg>
