<svg width="49" height="48" viewBox="0 0 49 48" fill="none" xmlns="http://www.w3.org/2000/svg">
<g filter="url(#filter0_d_1285_7502)">
<path d="M4.14844 8C4.14844 3.58172 7.73016 0 12.1484 0H36.1484C40.5667 0 44.1484 3.58172 44.1484 8V32C44.1484 36.4183 40.5667 40 36.1484 40H12.1484C7.73016 40 4.14844 36.4183 4.14844 32V8Z" fill="#FAFAFA" shape-rendering="crispEdges"/>
<path d="M24.9297 8.8418C26.0376 8.84202 26.9975 9.63033 27.2119 10.7168L27.2568 10.9258C27.3652 11.3793 27.5395 11.8579 27.7412 12.3271C28.0576 12.23 28.3928 12.1748 28.7402 12.1748C30.6217 12.175 32.1521 13.7055 32.1523 15.5869C32.1521 17.4683 30.6217 18.9998 28.7402 19C26.8586 19 25.3284 17.4685 25.3281 15.5869C25.3283 14.5584 25.7858 13.6353 26.5068 13.0098C26.4155 12.8022 26.3293 12.5892 26.248 12.375L24.1279 15.9453C24.0015 16.1579 23.7717 16.289 23.5244 16.2891H22.8936C22.5687 17.8344 21.1986 18.9997 19.5576 19C17.676 19 16.1448 17.4685 16.1445 15.5869C16.1448 13.7053 17.6759 12.1748 19.5576 12.1748L19.7539 12.1807C19.8543 12.1864 19.9538 12.1976 20.0518 12.2119L19.8887 11.7998H19.5576C19.1704 11.7998 18.8558 11.4857 18.8555 11.0986C18.8555 10.7112 19.1702 10.3965 19.5576 10.3965H21.124C21.5113 10.3966 21.8262 10.7113 21.8262 11.0986C21.8259 11.3959 21.6392 11.6471 21.3779 11.749L21.4189 11.8516H21.4219L22.0547 13.2539L22.0586 13.2549H22.043C22.4629 13.7023 22.7637 14.2625 22.8945 14.8857H23.126L23.8291 13.6992L23.8311 13.7002L25.2305 11.3477H25.2256L25.6641 10.6104C25.5602 10.4743 25.4195 10.3684 25.2588 10.3066L25.1768 10.2793C25.0976 10.2572 25.0146 10.2452 24.9297 10.2451C24.5426 10.2451 24.228 9.93098 24.2275 9.54395C24.2275 9.15655 24.5423 8.8418 24.9297 8.8418ZM19.8555 18.8359C19.7572 18.8449 19.6572 18.8486 19.5566 18.8486L19.5576 18.8496C19.759 18.8496 19.9561 18.831 20.1475 18.7959L19.8555 18.8359ZM19.5566 17.8438V17.8428L19.5576 17.8438C19.5612 17.8437 19.5648 17.8428 19.5684 17.8428C19.6232 17.8425 19.6775 17.8391 19.7314 17.835C19.7337 17.8348 19.736 17.8342 19.7383 17.834C19.6821 17.8385 19.6256 17.8425 19.5684 17.8428C19.5646 17.8428 19.5604 17.8428 19.5566 17.8428L19.3271 17.832C19.4026 17.8397 19.4792 17.8437 19.5566 17.8438ZM28.4648 17.8252C28.4797 17.827 28.4948 17.8305 28.5098 17.832L28.7402 17.8438C28.769 17.8437 28.7976 17.84 28.8262 17.8389C28.7976 17.8399 28.769 17.8428 28.7402 17.8428C28.6622 17.8428 28.5848 17.8388 28.5088 17.8311L28.2852 17.7969C28.3442 17.809 28.4042 17.8178 28.4648 17.8252ZM28.9277 17.834C28.9662 17.8308 29.0041 17.8254 29.042 17.8203C29.0041 17.8254 28.9662 17.8308 28.9277 17.834ZM19.8105 17.8252C19.8532 17.8205 19.8956 17.8166 19.9375 17.8096L19.9424 17.8086C19.8989 17.8159 19.8548 17.8203 19.8105 17.8252ZM29.126 17.8076C29.1604 17.8016 29.1946 17.7956 29.2285 17.7881C29.1946 17.7956 29.1604 17.8017 29.126 17.8076ZM29.4102 17.7412C29.3883 17.748 29.3658 17.7526 29.3438 17.7588C29.4372 17.7327 29.529 17.7034 29.6172 17.666L29.4102 17.7412ZM19.1221 17.7021C19.1513 17.7082 19.1812 17.711 19.2109 17.7158C19.1649 17.7083 19.1194 17.6991 19.0742 17.6895L19.1221 17.7021ZM19.5576 13.5781C18.45 13.5781 17.5481 14.4793 17.5479 15.5869C17.5481 16.6945 18.45 17.5967 19.5576 17.5967L19.7295 17.5898C20.515 17.5227 21.1732 17.0004 21.4395 16.2891H19.5576C19.1704 16.2891 18.8557 15.9741 18.8555 15.5869C18.8557 15.1997 19.1704 14.8857 19.5576 14.8857H21.4395C21.1541 14.1229 20.418 13.5784 19.5576 13.5781ZM28.7402 13.5781C28.6131 13.5781 28.4887 13.5905 28.3682 13.6133C28.5986 14.0385 28.8199 14.4105 28.9912 14.6855C29.0878 14.8406 29.1688 14.9654 29.2256 15.0518C29.2539 15.0948 29.2775 15.1293 29.293 15.1523C29.3005 15.1635 29.3064 15.1727 29.3105 15.1787C29.3125 15.1816 29.3143 15.1849 29.3154 15.1865L29.3164 15.1885H29.3174L29.3857 15.3135C29.4948 15.5706 29.4403 15.8706 29.2471 16.0723L29.1387 16.165C29.0175 16.2486 28.8776 16.289 28.7402 16.2891C28.5463 16.289 28.354 16.2077 28.2178 16.0557L28.1631 15.9854C28.1228 15.927 27.6688 15.2641 27.165 14.3408C26.893 14.6837 26.7306 15.1168 26.7305 15.5869C26.7307 16.6945 27.6326 17.5967 28.7402 17.5967C29.8477 17.5965 30.7497 16.6943 30.75 15.5869C30.7498 14.4794 29.8477 13.5783 28.7402 13.5781ZM27.7109 17.4854C27.7691 17.517 27.8294 17.545 27.8906 17.5713C27.7651 17.5173 27.6452 17.4527 27.5332 17.377L27.7109 17.4854ZM27.4766 17.4561C27.4891 17.4646 27.5029 17.4712 27.5156 17.4795C27.5031 17.4714 27.4899 17.4644 27.4775 17.4561L27.3027 17.3252L27.4766 17.4561ZM30.1738 17.3271C30.1183 17.373 30.0608 17.4166 30.001 17.457L30.1748 17.3271C30.2305 17.2812 30.284 17.2327 30.335 17.1816L30.1738 17.3271ZM31.5596 17.2246C31.6046 17.1474 31.6448 17.0673 31.6836 16.9863C31.6448 17.0673 31.6046 17.1474 31.5596 17.2246ZM30.8018 16.2275C30.7004 16.5529 30.523 16.8444 30.292 17.084C30.5229 16.8447 30.7004 16.5536 30.8018 16.2285V16.2275ZM26.9521 16.7969L26.9502 16.793C26.8916 16.7063 26.8387 16.6154 26.793 16.5205C26.8393 16.6168 26.8926 16.7091 26.9521 16.7969ZM31.6973 16.958C31.7322 16.8833 31.7666 16.8081 31.7959 16.7305L31.8037 16.707C31.7723 16.7927 31.7356 16.8759 31.6973 16.958ZM25.7656 16.6719C25.7806 16.7127 25.7969 16.7529 25.8135 16.793C25.7774 16.7057 25.7451 16.6164 25.7168 16.5254L25.7656 16.6719ZM26.6885 16.2549C26.7007 16.2924 26.7133 16.3296 26.7275 16.3662C26.7133 16.3296 26.7007 16.2924 26.6885 16.2549ZM26.6436 16.0996C26.6515 16.1322 26.6605 16.1643 26.6699 16.1963C26.6605 16.1643 26.6515 16.1322 26.6436 16.0996ZM29.0527 16.041C29.0329 16.0547 29.0121 16.0664 28.9912 16.0771C29.0124 16.0663 29.0336 16.0549 29.0537 16.041C29.0745 16.0266 29.0922 16.0088 29.1104 15.9922C29.0921 16.0089 29.0737 16.0266 29.0527 16.041ZM25.5889 15.8691C25.594 15.9259 25.5993 15.9822 25.6074 16.0381C25.5994 15.9823 25.594 15.9259 25.5889 15.8691ZM26.6074 15.9199C26.6136 15.9598 26.6215 15.999 26.6299 16.0381C26.6215 15.999 26.6136 15.9597 26.6074 15.9199ZM28.377 16.0029C28.3842 16.0092 28.3929 16.0137 28.4004 16.0195C28.3754 15.9999 28.3508 15.9793 28.3291 15.9551L28.377 16.0029ZM23.998 15.8682C23.986 15.8885 23.9732 15.9083 23.959 15.9268L23.999 15.8691L26.2793 12.0303C26.3393 12.203 26.4042 12.3753 26.4727 12.5459L26.2793 12.0293L23.998 15.8682ZM27.1113 14.1738C27.1386 14.1425 27.1654 14.1108 27.1943 14.0811C27.7335 15.0948 28.2446 15.8401 28.2861 15.9004L27.9277 15.3486C27.7274 15.028 27.4643 14.5877 27.1943 14.0801C27.1652 14.1099 27.1387 14.1424 27.1113 14.1738ZM26.5879 15.7617C26.5905 15.7946 26.5955 15.827 26.5996 15.8594C26.5955 15.827 26.5905 15.7945 26.5879 15.7617ZM25.5781 15.749C25.5788 15.7621 25.5812 15.7751 25.582 15.7881C25.5777 15.7215 25.5742 15.6545 25.5742 15.5869L25.5781 15.749ZM31.9775 15.1953C31.993 15.3238 32.002 15.4544 32.002 15.5869C32.002 15.6294 32.0006 15.6717 31.999 15.7139C32.0008 15.6717 32.0029 15.6294 32.0029 15.5869C32.0029 15.4543 31.993 15.3238 31.9775 15.1953ZM26.5908 15.3701C26.5837 15.4414 26.5801 15.5138 26.5801 15.5869C26.5801 15.6161 26.5828 15.645 26.584 15.6738C26.5828 15.645 26.5811 15.616 26.5811 15.5869C26.5811 15.4407 26.5952 15.2973 26.623 15.1592L26.5908 15.3701ZM19.1309 15.4316C19.1258 15.4457 19.1209 15.4599 19.1172 15.4746C19.1209 15.4599 19.1257 15.4457 19.1309 15.4316ZM19.1797 15.333C19.1664 15.3527 19.1556 15.3738 19.1455 15.3955C19.1556 15.3738 19.1665 15.3527 19.1797 15.333ZM25.499 15.2197C25.4965 15.2431 25.4942 15.2665 25.4922 15.29C25.4942 15.2665 25.4965 15.2431 25.499 15.2197ZM16.4277 15.1055C16.4225 15.1397 16.4192 15.1744 16.415 15.209C16.4255 15.1216 16.4386 15.0352 16.4561 14.9502L16.4277 15.1055ZM31.9727 15.1523C31.9653 15.0978 31.9563 15.0439 31.9463 14.9902C31.9563 15.0439 31.9654 15.0978 31.9727 15.1523ZM21.7422 15.0254C21.7433 15.029 21.7442 15.0326 21.7451 15.0361L21.7676 15.1328L21.7451 15.0352C21.7443 15.0319 21.7432 15.0286 21.7422 15.0254ZM25.5254 15.0244C25.5229 15.039 25.5218 15.0538 25.5195 15.0684C25.5228 15.0478 25.5257 15.0273 25.5293 15.0068L25.5254 15.0244ZM31.9395 14.9502C31.9302 14.9039 31.9194 14.8581 31.9082 14.8125C31.9194 14.8581 31.9302 14.9039 31.9395 14.9502ZM30.6377 14.5586C30.671 14.6198 30.7021 14.6825 30.7295 14.7471L30.6387 14.5586C30.6053 14.4972 30.5692 14.4375 30.5303 14.3799L30.6377 14.5586ZM31.8887 14.7354C31.8773 14.6933 31.8646 14.6517 31.8516 14.6104C31.8646 14.6517 31.8773 14.6933 31.8887 14.7354ZM25.7666 14.499C25.7459 14.5555 25.7275 14.613 25.71 14.6709L25.7676 14.499C25.7883 14.4426 25.8102 14.3869 25.834 14.332L25.7666 14.499ZM30.6113 14.3281C30.6518 14.3881 30.6899 14.4498 30.7246 14.5137L30.6123 14.3281C30.5718 14.2681 30.5284 14.2101 30.4824 14.1543L30.6113 14.3281ZM31.8193 14.5137C31.8096 14.4858 31.7995 14.4582 31.7891 14.4307C31.7995 14.4582 31.8096 14.4858 31.8193 14.5137ZM31.751 14.3369C31.7359 14.3008 31.7204 14.265 31.7041 14.2295C31.7204 14.265 31.7359 14.3008 31.751 14.3369ZM26.0801 13.6992C25.9422 13.8929 25.8249 14.1024 25.7314 14.3242L25.8066 14.1602C25.8855 13.9987 25.9769 13.8445 26.0801 13.6992ZM21.3096 14.1689C21.2935 14.1492 21.2784 14.1286 21.2617 14.1094L21.2529 14.1006C21.2724 14.1228 21.2909 14.1459 21.3096 14.1689ZM31.6748 14.167C31.6553 14.1268 31.6353 14.0871 31.6143 14.0479C31.6353 14.0871 31.6553 14.1269 31.6748 14.167ZM21.0176 13.998C21.0601 14.0372 21.1013 14.0777 21.1406 14.1201L21.0176 13.9971C20.9749 13.9578 20.9305 13.9205 20.8848 13.8848L21.0176 13.998ZM18.5283 13.6885C18.4672 13.7217 18.408 13.7581 18.3506 13.7969C18.4656 13.7191 18.5885 13.6524 18.7178 13.5977L18.5283 13.6885ZM28.3379 13.4658C28.2717 13.4783 28.2064 13.4933 28.1426 13.5117C28.1866 13.5951 28.2318 13.6763 28.2754 13.7559C28.232 13.6766 28.1875 13.5957 28.1436 13.5127C28.2072 13.4943 28.272 13.4786 28.3379 13.4658ZM31.2559 13.5127C31.2892 13.5531 31.3221 13.5938 31.3535 13.6357L31.2568 13.5127C31.1903 13.4321 31.1197 13.3551 31.0459 13.2812L31.2559 13.5127ZM17.3193 13.3496C17.2478 13.4212 17.1797 13.4961 17.1152 13.5742L17.3203 13.3496C17.3919 13.2781 17.4668 13.21 17.5449 13.1455L17.3193 13.3496ZM19.1221 13.4717C19.0521 13.486 18.9833 13.5034 18.916 13.5244L19.123 13.4717C19.1932 13.4573 19.2645 13.4459 19.3369 13.4385L19.1221 13.4717ZM28.4346 13.4492C28.4185 13.4515 28.4026 13.4544 28.3867 13.457C28.4522 13.4459 28.5186 13.4375 28.5859 13.4326L28.4346 13.4492ZM20.4512 12.5498L20.4531 12.5508L20.0557 11.5527L20.4512 12.5498ZM19.0752 12.458C19.023 12.466 18.9713 12.4758 18.9199 12.4863L19.0762 12.458C19.1285 12.45 19.1812 12.4429 19.2344 12.4375L19.0752 12.458ZM19.9951 12.4521C19.9454 12.4452 19.8952 12.4401 19.8447 12.4355C19.8369 12.4348 19.8291 12.4334 19.8213 12.4326C19.8797 12.4377 19.9376 12.4441 19.9951 12.4521ZM28.9023 12.4258C28.9564 12.4285 29.0102 12.4321 29.0635 12.4375C29.0105 12.4321 28.957 12.4285 28.9033 12.4258L28.7402 12.4219L28.9023 12.4258ZM20.1123 12.3721L20.292 12.4082C20.1739 12.3809 20.0532 12.3596 19.9307 12.3457L20.1123 12.3721ZM26.3828 12.0303L26.4268 12.1543C26.428 12.1576 26.4295 12.1608 26.4307 12.1641C26.4143 12.1192 26.3986 12.0742 26.3828 12.0293V12.0303ZM25.957 10.6094C25.9449 10.6248 25.9331 10.6409 25.9229 10.6582L25.8789 10.7334L25.9238 10.6582C25.9341 10.6409 25.9458 10.6248 25.958 10.6094C25.9312 10.5602 25.9004 10.5132 25.8672 10.4688L25.957 10.6094ZM25.2168 10.1348C25.2493 10.1438 25.2813 10.154 25.3125 10.166C25.2812 10.154 25.2493 10.1429 25.2168 10.1338C25.1707 10.1209 25.1233 10.1112 25.0752 10.1045L25.2168 10.1348ZM26.6885 9.88867C26.724 9.9373 26.7576 9.98739 26.7891 10.0391C26.7254 9.93458 26.6538 9.83577 26.5742 9.74414L26.6885 9.88867ZM24.4834 9.63379C24.4894 9.66325 24.4984 9.69165 24.5098 9.71875L24.4844 9.63379C24.4784 9.6045 24.4746 9.57401 24.4746 9.54297L24.4834 9.63379ZM24.6074 9.22168C24.587 9.24215 24.569 9.26501 24.5527 9.28906L24.6084 9.22168C24.6288 9.20128 24.6508 9.18225 24.6748 9.16602L24.6074 9.22168ZM26.7441 16.4082C26.7598 16.446 26.7753 16.4838 26.793 16.5205C26.7753 16.4838 26.7598 16.446 26.7441 16.4082ZM21.7363 15.0078V15.0059C21.7381 15.0123 21.7402 15.0188 21.7422 15.0254C21.7404 15.0195 21.7382 15.0137 21.7363 15.0078Z" fill="black"/>
<path opacity="0.35" d="M15.3486 26.5H29.9482C30.5165 26.5 30.9133 26.5002 31.2217 26.5254C31.4486 26.5439 31.6031 26.5747 31.7217 26.6172L31.8291 26.6631C32.076 26.7889 32.2826 26.9809 32.4268 27.2158L32.4854 27.3193C32.5523 27.4509 32.5983 27.6247 32.623 27.9268C32.6482 28.2352 32.6484 28.6319 32.6484 29.2002V30.7998C32.6484 31.3681 32.6482 31.7648 32.623 32.0732C32.6045 32.3002 32.5737 32.4546 32.5312 32.5732L32.4854 32.6807C32.3595 32.9276 32.1676 33.1342 31.9326 33.2783L31.8291 33.3369C31.6975 33.4039 31.5237 33.4499 31.2217 33.4746C30.9133 33.4998 30.5165 33.5 29.9482 33.5H15.3486C14.7803 33.5 14.3836 33.4998 14.0752 33.4746C13.8483 33.4561 13.6938 33.4253 13.5752 33.3828L13.4678 33.3369C13.2208 33.2111 13.0142 33.0191 12.8701 32.7842L12.8115 32.6807C12.7446 32.5491 12.6985 32.3753 12.6738 32.0732C12.6486 31.7648 12.6484 31.3681 12.6484 30.7998V29.2002C12.6484 28.6319 12.6486 28.2352 12.6738 27.9268C12.6924 27.6998 12.7232 27.5454 12.7656 27.4268L12.8115 27.3193C12.9373 27.0724 13.1293 26.8658 13.3643 26.7217L13.4678 26.6631C13.5994 26.5961 13.7731 26.5501 14.0752 26.5254C14.2293 26.5128 14.4057 26.5062 14.6143 26.5029L15.3486 26.5Z" stroke="white" stroke-opacity="0.35"/>
<path opacity="0.4" d="M34.1484 28V32.2344C35.0034 31.8758 35.5593 31.0415 35.5593 30.1172C35.5593 29.1929 35.0034 28.3586 34.1484 28Z" fill="white" fill-opacity="0.35"/>
<path d="M14.1484 29.6C14.1484 29.0399 14.1484 28.7599 14.2574 28.546C14.3533 28.3578 14.5063 28.2049 14.6944 28.109C14.9084 28 15.1884 28 15.7484 28H29.5484C30.1085 28 30.3885 28 30.6024 28.109C30.7906 28.2049 30.9436 28.3578 31.0394 28.546C31.1484 28.7599 31.1484 29.0399 31.1484 29.6V30.4C31.1484 30.9601 31.1484 31.2401 31.0394 31.454C30.9436 31.6422 30.7906 31.7951 30.6024 31.891C30.3885 32 30.1085 32 29.5484 32H15.7484C15.1884 32 14.9084 32 14.6944 31.891C14.5063 31.7951 14.3533 31.6422 14.2574 31.454C14.1484 31.2401 14.1484 30.9601 14.1484 30.4V29.6Z" fill="#849D65"/>
</g>
<defs>
<filter id="filter0_d_1285_7502" x="0.148438" y="0" width="48" height="48" filterUnits="userSpaceOnUse" color-interpolation-filters="sRGB">
<feFlood flood-opacity="0" result="BackgroundImageFix"/>
<feColorMatrix in="SourceAlpha" type="matrix" values="0 0 0 0 0 0 0 0 0 0 0 0 0 0 0 0 0 0 127 0" result="hardAlpha"/>
<feOffset dy="4"/>
<feGaussianBlur stdDeviation="2"/>
<feComposite in2="hardAlpha" operator="out"/>
<feColorMatrix type="matrix" values="0 0 0 0 0 0 0 0 0 0 0 0 0 0 0 0 0 0 0.12 0"/>
<feBlend mode="normal" in2="BackgroundImageFix" result="effect1_dropShadow_1285_7502"/>
<feBlend mode="normal" in="SourceGraphic" in2="effect1_dropShadow_1285_7502" result="shape"/>
</filter>
</defs>
</svg>
