<svg width="16" height="16" viewBox="0 0 16 16" fill="none" xmlns="http://www.w3.org/2000/svg">
    <g clip-path="url(#clip0_1205_8059)">
        <path d="M9.55533 1.07905C11.0197 -0.385107 13.3936 -0.385044 14.8581 1.07905L14.9196 1.1396C16.384 2.604 16.3839 4.97883 14.9196 6.44331L6.28092 15.081C6.16618 15.1957 6.01769 15.271 5.85709 15.2939L0.836582 16.0117C0.602923 16.0451 0.366784 15.9657 0.199863 15.7988C0.0331643 15.632 -0.0452358 15.3965 -0.0120512 15.163L0.705722 10.1416C0.728729 9.98104 0.802972 9.83141 0.917636 9.71675L9.55533 1.07905ZM2.15494 10.6015L1.6149 14.3837L5.39713 13.8437L11.8629 7.37788L8.61978 4.13569L2.15494 10.6015ZM13.7975 2.1396C12.9189 1.26129 11.4945 1.26123 10.6159 2.1396L9.68131 3.07515L12.9235 6.31734L13.8581 5.38276C14.7367 4.50408 14.7367 3.0798 13.8581 2.20112L13.7975 2.1396Z" fill="#849D65"/>
    </g>
    <defs>
        <clipPath id="clip0_1205_8059">
            <rect width="16" height="16" fill="white"/>
        </clipPath>
    </defs>
</svg>
