<svg width="40" height="40" viewBox="0 0 40 40" fill="none" xmlns="http://www.w3.org/2000/svg">
    <path d="M0.998651 30.1769C1.50251 30.1769 1.92961 30.5594 1.99674 31.0588C2.33301 33.5599 2.9601 34.979 3.99088 36.0099C5.02178 37.0408 6.4408 37.6687 8.94205 38.005C9.44134 38.0722 9.82389 38.4894 9.82389 38.9932V39.0136C9.82389 39.6038 9.31565 40.0689 8.73045 39.9917C6.14908 39.6513 4.2938 38.9881 2.85709 37.6906L2.57682 37.424C1.10262 35.9497 0.373015 34.0227 0.0100279 31.2702C-0.0671094 30.6852 0.408651 30.1769 0.998651 30.1769ZM38.9997 30.1769C39.5897 30.1769 40.0655 30.6852 39.9883 31.2702C39.6254 34.0228 38.8958 35.9497 37.4215 37.424L37.1413 37.6906C35.7045 38.9881 33.8494 39.6513 31.2679 39.9918C30.6827 40.0689 30.1745 39.6038 30.1745 39.0136V38.9932C30.1745 38.4894 30.557 38.0722 31.0563 38.005C33.5576 37.6688 34.9766 37.0408 36.0075 36.0099C37.0383 34.979 37.6653 33.56 38.0016 31.0588C38.0687 30.5594 38.4959 30.1769 38.9997 30.1769ZM30.1745 0.997389C30.1745 0.407676 30.6825 -0.0676098 31.2672 0.00943632C34.02 0.372205 35.9471 1.10101 37.4215 2.57536C38.8958 4.04961 39.6275 5.97625 39.991 8.72859C40.0684 9.31436 39.6028 9.82341 39.012 9.82341H38.9919C38.4875 9.82341 38.0688 9.4405 38.0016 8.94059C37.6653 6.43927 37.0384 5.02034 36.0075 3.98942C34.9766 2.95856 33.5576 2.33157 31.0563 1.99528C30.5569 1.92815 30.1745 1.50125 30.1745 0.997389ZM9.82389 0.997394C9.82389 1.50125 9.44142 1.92815 8.94205 1.99528C6.44079 2.33159 5.02178 2.95852 3.99088 3.98942C2.95999 5.02034 2.33303 6.4393 1.99674 8.94059C1.92953 9.4405 1.50212 9.82341 0.997718 9.82341C0.407148 9.82341 -0.0690507 9.3149 0.00825357 8.72941C0.349121 6.14774 1.01346 4.29248 2.31119 2.85563L2.57682 2.57536C4.05118 1.101 5.97838 0.372226 8.73114 0.00944712C9.31581 -0.0676038 9.82389 0.407677 9.82389 0.997394Z" fill="white"/>
    <path fill-rule="evenodd" clip-rule="evenodd" d="M10 15.7305C10 17.6289 11.539 19.168 13.4375 19.168H15.7292C17.6276 19.168 19.1667 17.6289 19.1667 15.7305V13.4388C19.1667 11.5403 17.6276 10.0013 15.7292 10.0013H13.4375C11.539 10.0013 10 11.5403 10 13.4388V15.7305ZM13.4375 16.8763C12.8047 16.8763 12.2917 16.3633 12.2917 15.7305V13.4388C12.2917 12.806 12.8047 12.293 13.4375 12.293H15.7292C16.362 12.293 16.875 12.806 16.875 13.4388V15.7305C16.875 16.3633 16.362 16.8763 15.7292 16.8763H13.4375Z" fill="white"/>
    <path fill-rule="evenodd" clip-rule="evenodd" d="M20.832 15.7305C20.832 17.6289 22.371 19.168 24.2695 19.168H26.5612C28.4597 19.168 29.9987 17.6289 29.9987 15.7305V13.4388C29.9987 11.5404 28.4597 10.0013 26.5612 10.0013H24.2695C22.371 10.0013 20.832 11.5404 20.832 13.4388V15.7305ZM24.2695 16.8763C23.6367 16.8763 23.1237 16.3633 23.1237 15.7305V13.4388C23.1237 12.806 23.6367 12.293 24.2695 12.293H26.5612C27.194 12.293 27.707 12.806 27.707 13.4388V15.7305C27.707 16.3633 27.194 16.8763 26.5612 16.8763H24.2695Z" fill="white"/>
    <path fill-rule="evenodd" clip-rule="evenodd" d="M10 26.5637C10 28.4622 11.539 30.0012 13.4375 30.0012H15.7292C17.6276 30.0012 19.1667 28.4622 19.1667 26.5637V24.2721C19.1667 22.3736 17.6276 20.8346 15.7292 20.8346H13.4375C11.539 20.8346 10 22.3736 10 24.2721V26.5637ZM13.4375 27.7096C12.8047 27.7096 12.2917 27.1965 12.2917 26.5637V24.2721C12.2917 23.6393 12.8047 23.1262 13.4375 23.1262H15.7292C16.362 23.1262 16.875 23.6393 16.875 24.2721V26.5637C16.875 27.1965 16.362 27.7096 15.7292 27.7096H13.4375Z" fill="white"/>
    <path fill-rule="evenodd" clip-rule="evenodd" d="M25.4154 28.8554C25.4154 29.4882 25.9284 30.0012 26.5612 30.0012H28.8529C29.4857 30.0012 29.9987 29.4882 29.9987 28.8554C29.9987 28.2226 29.4857 27.7096 28.8529 27.7096H27.707V26.5637C27.707 25.9309 27.194 25.4179 26.5612 25.4179H23.1237V21.9804C23.1237 21.3476 22.6107 20.8346 21.9779 20.8346C21.345 20.8346 20.832 21.3476 20.832 21.9804V26.5637C20.832 27.1965 21.345 27.7096 21.9779 27.7096H25.4154V28.8554Z" fill="white"/>
    <path fill-rule="evenodd" clip-rule="evenodd" d="M28.75 25.8345C29.4404 25.8345 30 25.2748 30 24.5845V22.0845C30 21.3941 29.4404 20.8345 28.75 20.8345C28.0596 20.8345 27.5 21.3941 27.5 22.0845V24.5845C27.5 25.2748 28.0596 25.8345 28.75 25.8345Z" fill="white"/>
    <path fill-rule="evenodd" clip-rule="evenodd" d="M22.082 30.0012C22.7724 30.0012 23.332 29.5349 23.332 28.9596V26.8762C23.332 26.3009 22.7724 25.8346 22.082 25.8346C21.3917 25.8346 20.832 26.3009 20.832 26.8762V28.9596C20.832 29.5349 21.3917 30.0012 22.082 30.0012Z" fill="white"/>
    <path fill-rule="evenodd" clip-rule="evenodd" d="M25.832 22.0845C25.832 22.7748 26.2984 23.3345 26.8737 23.3345H28.957C29.5323 23.3345 29.9987 22.7748 29.9987 22.0845C29.9987 21.3941 29.5323 20.8345 28.957 20.8345H26.8737C26.2984 20.8345 25.832 21.3941 25.832 22.0845Z" fill="white"/>
</svg>
