<svg width="48" height="48" viewBox="0 0 48 48" fill="none" xmlns="http://www.w3.org/2000/svg">
    <g filter="url(#filter0_d_1285_7503)">
        <path d="M4 8C4 3.58172 7.58172 0 12 0H36C40.4183 0 44 3.58172 44 8V32C44 36.4183 40.4183 40 36 40H12C7.58172 40 4 36.4183 4 32V8Z" fill="#849D65" shape-rendering="crispEdges"/>
        <path d="M24.7812 8.8418C25.8892 8.84202 26.8491 9.63033 27.0635 10.7168L27.1084 10.9258C27.2168 11.3793 27.3911 11.8579 27.5928 12.3271C27.9092 12.23 28.2443 12.1748 28.5918 12.1748C30.4733 12.175 32.0037 13.7055 32.0039 15.5869C32.0036 17.4683 30.4732 18.9998 28.5918 19C26.7102 19 25.18 17.4685 25.1797 15.5869C25.1798 14.5584 25.6374 13.6353 26.3584 13.0098C26.267 12.8022 26.1809 12.5892 26.0996 12.375L23.9795 15.9453C23.8531 16.1579 23.6233 16.289 23.376 16.2891H22.7451C22.4203 17.8344 21.0502 18.9997 19.4092 19C17.5275 19 15.9964 17.4685 15.9961 15.5869C15.9963 13.7053 17.5275 12.1748 19.4092 12.1748L19.6055 12.1807C19.7059 12.1864 19.8053 12.1976 19.9033 12.2119L19.7402 11.7998H19.4092C19.022 11.7998 18.7074 11.4857 18.707 11.0986C18.707 10.7112 19.0218 10.3965 19.4092 10.3965H20.9756C21.3629 10.3966 21.6777 10.7113 21.6777 11.0986C21.6774 11.3959 21.4908 11.6471 21.2295 11.749L21.2705 11.8516H21.2734L21.9062 13.2539L21.9102 13.2549H21.8945C22.3145 13.7023 22.6152 14.2625 22.7461 14.8857H22.9775L23.6807 13.6992L23.6826 13.7002L25.082 11.3477H25.0771L25.5156 10.6104C25.4118 10.4743 25.2711 10.3684 25.1104 10.3066L25.0283 10.2793C24.9492 10.2572 24.8662 10.2452 24.7812 10.2451C24.3941 10.2451 24.0795 9.93098 24.0791 9.54395C24.0791 9.15655 24.3939 8.8418 24.7812 8.8418ZM19.707 18.8359C19.6087 18.8449 19.5088 18.8486 19.4082 18.8486L19.4092 18.8496C19.6105 18.8496 19.8077 18.831 19.999 18.7959L19.707 18.8359ZM19.4082 17.8438V17.8428L19.4092 17.8438C19.4128 17.8437 19.4163 17.8428 19.4199 17.8428C19.4748 17.8425 19.5291 17.8391 19.583 17.835C19.5853 17.8348 19.5876 17.8342 19.5898 17.834C19.5337 17.8385 19.4771 17.8425 19.4199 17.8428C19.4162 17.8428 19.412 17.8428 19.4082 17.8428L19.1787 17.832C19.2542 17.8397 19.3308 17.8437 19.4082 17.8438ZM28.3164 17.8252C28.3313 17.827 28.3463 17.8305 28.3613 17.832L28.5918 17.8438C28.6206 17.8437 28.6492 17.84 28.6777 17.8389C28.6492 17.8399 28.6206 17.8428 28.5918 17.8428C28.5138 17.8428 28.4363 17.8388 28.3604 17.8311L28.1367 17.7969C28.1958 17.809 28.2558 17.8178 28.3164 17.8252ZM28.7793 17.834C28.8177 17.8308 28.8557 17.8254 28.8936 17.8203C28.8557 17.8254 28.8177 17.8308 28.7793 17.834ZM19.6621 17.8252C19.7047 17.8205 19.7472 17.8166 19.7891 17.8096L19.7939 17.8086C19.7505 17.8159 19.7064 17.8203 19.6621 17.8252ZM28.9775 17.8076C29.012 17.8016 29.0462 17.7956 29.0801 17.7881C29.0462 17.7956 29.012 17.8017 28.9775 17.8076ZM29.2617 17.7412C29.2399 17.748 29.2174 17.7526 29.1953 17.7588C29.2888 17.7327 29.3806 17.7034 29.4688 17.666L29.2617 17.7412ZM18.9736 17.7021C19.0029 17.7082 19.0328 17.711 19.0625 17.7158C19.0164 17.7083 18.9709 17.6991 18.9258 17.6895L18.9736 17.7021ZM19.4092 13.5781C18.3015 13.5781 17.3996 14.4793 17.3994 15.5869C17.3997 16.6945 18.3015 17.5967 19.4092 17.5967L19.5811 17.5898C20.3665 17.5227 21.0247 17.0004 21.291 16.2891H19.4092C19.0219 16.2891 18.7073 15.9741 18.707 15.5869C18.7073 15.1997 19.0219 14.8857 19.4092 14.8857H21.291C21.0056 14.1229 20.2696 13.5784 19.4092 13.5781ZM28.5918 13.5781C28.4647 13.5781 28.3403 13.5905 28.2197 13.6133C28.4502 14.0385 28.6714 14.4105 28.8428 14.6855C28.9394 14.8406 29.0203 14.9654 29.0771 15.0518C29.1055 15.0948 29.129 15.1293 29.1445 15.1523C29.152 15.1635 29.158 15.1727 29.1621 15.1787C29.1641 15.1816 29.1659 15.1849 29.167 15.1865L29.168 15.1885H29.1689L29.2373 15.3135C29.3464 15.5706 29.2919 15.8706 29.0986 16.0723L28.9902 16.165C28.869 16.2486 28.7292 16.289 28.5918 16.2891C28.3979 16.289 28.2056 16.2077 28.0693 16.0557L28.0146 15.9854C27.9744 15.927 27.5204 15.2641 27.0166 14.3408C26.7446 14.6837 26.5821 15.1168 26.582 15.5869C26.5823 16.6945 27.4841 17.5967 28.5918 17.5967C29.6992 17.5965 30.6013 16.6943 30.6016 15.5869C30.6014 14.4794 29.6993 13.5783 28.5918 13.5781ZM27.5625 17.4854C27.6207 17.517 27.681 17.545 27.7422 17.5713C27.6166 17.5173 27.4967 17.4527 27.3848 17.377L27.5625 17.4854ZM27.3281 17.4561C27.3407 17.4646 27.3545 17.4712 27.3672 17.4795C27.3547 17.4714 27.3414 17.4644 27.3291 17.4561L27.1543 17.3252L27.3281 17.4561ZM30.0254 17.3271C29.9698 17.373 29.9123 17.4166 29.8525 17.457L30.0264 17.3271C30.082 17.2812 30.1355 17.2327 30.1865 17.1816L30.0254 17.3271ZM31.4111 17.2246C31.4562 17.1474 31.4963 17.0673 31.5352 16.9863C31.4964 17.0673 31.4562 17.1474 31.4111 17.2246ZM30.6533 16.2275C30.552 16.5529 30.3746 16.8444 30.1436 17.084C30.3745 16.8447 30.5519 16.5536 30.6533 16.2285V16.2275ZM26.8037 16.7969L26.8018 16.793C26.7432 16.7063 26.6902 16.6154 26.6445 16.5205C26.6909 16.6168 26.7441 16.7091 26.8037 16.7969ZM31.5488 16.958C31.5838 16.8833 31.6182 16.8081 31.6475 16.7305L31.6553 16.707C31.6238 16.7927 31.5872 16.8759 31.5488 16.958ZM25.6172 16.6719C25.6321 16.7127 25.6485 16.7529 25.665 16.793C25.6289 16.7057 25.5967 16.6164 25.5684 16.5254L25.6172 16.6719ZM26.54 16.2549C26.5523 16.2924 26.5649 16.3296 26.5791 16.3662C26.5649 16.3296 26.5523 16.2924 26.54 16.2549ZM26.4951 16.0996C26.5031 16.1322 26.512 16.1643 26.5215 16.1963C26.5121 16.1643 26.5031 16.1322 26.4951 16.0996ZM28.9043 16.041C28.8844 16.0547 28.8637 16.0664 28.8428 16.0771C28.864 16.0663 28.8852 16.0549 28.9053 16.041C28.9261 16.0266 28.9437 16.0088 28.9619 15.9922C28.9436 16.0089 28.9252 16.0266 28.9043 16.041ZM25.4404 15.8691C25.4455 15.9259 25.4509 15.9822 25.459 16.0381C25.451 15.9823 25.4456 15.9259 25.4404 15.8691ZM26.459 15.9199C26.4652 15.9598 26.4731 15.999 26.4814 16.0381C26.4731 15.999 26.4652 15.9597 26.459 15.9199ZM28.2285 16.0029C28.2357 16.0092 28.2445 16.0137 28.252 16.0195C28.227 15.9999 28.2024 15.9793 28.1807 15.9551L28.2285 16.0029ZM23.8496 15.8682C23.8375 15.8885 23.8247 15.9083 23.8105 15.9268L23.8506 15.8691L26.1309 12.0303C26.1908 12.203 26.2557 12.3753 26.3242 12.5459L26.1309 12.0293L23.8496 15.8682ZM26.9629 14.1738C26.9901 14.1425 27.0169 14.1108 27.0459 14.0811C27.5851 15.0948 28.0961 15.8401 28.1377 15.9004L27.7793 15.3486C27.5789 15.028 27.3158 14.5877 27.0459 14.0801C27.0168 14.1099 26.9902 14.1424 26.9629 14.1738ZM26.4395 15.7617C26.4421 15.7946 26.4471 15.827 26.4512 15.8594C26.4471 15.827 26.4421 15.7945 26.4395 15.7617ZM25.4297 15.749C25.4304 15.7621 25.4328 15.7751 25.4336 15.7881C25.4293 15.7215 25.4258 15.6545 25.4258 15.5869L25.4297 15.749ZM31.8291 15.1953C31.8446 15.3238 31.8535 15.4544 31.8535 15.5869C31.8535 15.6294 31.8522 15.6717 31.8506 15.7139C31.8524 15.6717 31.8545 15.6294 31.8545 15.5869C31.8545 15.4543 31.8446 15.3238 31.8291 15.1953ZM26.4424 15.3701C26.4352 15.4414 26.4316 15.5138 26.4316 15.5869C26.4316 15.6161 26.4344 15.645 26.4355 15.6738C26.4344 15.645 26.4326 15.616 26.4326 15.5869C26.4326 15.4407 26.4468 15.2973 26.4746 15.1592L26.4424 15.3701ZM18.9824 15.4316C18.9773 15.4457 18.9725 15.4599 18.9688 15.4746C18.9725 15.4599 18.9773 15.4457 18.9824 15.4316ZM19.0312 15.333C19.018 15.3527 19.0071 15.3738 18.9971 15.3955C19.0071 15.3738 19.018 15.3527 19.0312 15.333ZM25.3506 15.2197C25.3481 15.2431 25.3458 15.2665 25.3438 15.29C25.3458 15.2665 25.348 15.2431 25.3506 15.2197ZM16.2793 15.1055C16.274 15.1397 16.2707 15.1744 16.2666 15.209C16.277 15.1216 16.2902 15.0352 16.3076 14.9502L16.2793 15.1055ZM31.8242 15.1523C31.8169 15.0978 31.8078 15.0439 31.7979 14.9902C31.8078 15.0439 31.8169 15.0978 31.8242 15.1523ZM21.5938 15.0254C21.5948 15.029 21.5958 15.0326 21.5967 15.0361L21.6191 15.1328L21.5967 15.0352C21.5958 15.0319 21.5948 15.0286 21.5938 15.0254ZM25.377 15.0244C25.3744 15.039 25.3734 15.0538 25.3711 15.0684C25.3743 15.0478 25.3772 15.0273 25.3809 15.0068L25.377 15.0244ZM31.791 14.9502C31.7818 14.9039 31.7709 14.8581 31.7598 14.8125C31.7709 14.8581 31.7818 14.9039 31.791 14.9502ZM30.4893 14.5586C30.5226 14.6198 30.5537 14.6825 30.5811 14.7471L30.4902 14.5586C30.4569 14.4972 30.4208 14.4375 30.3818 14.3799L30.4893 14.5586ZM31.7402 14.7354C31.7288 14.6933 31.7162 14.6517 31.7031 14.6104C31.7161 14.6517 31.7288 14.6933 31.7402 14.7354ZM25.6182 14.499C25.5974 14.5555 25.5791 14.613 25.5615 14.6709L25.6191 14.499C25.6399 14.4426 25.6618 14.3869 25.6855 14.332L25.6182 14.499ZM30.4629 14.3281C30.5034 14.3881 30.5415 14.4498 30.5762 14.5137L30.4639 14.3281C30.4234 14.2681 30.3799 14.2101 30.334 14.1543L30.4629 14.3281ZM31.6709 14.5137C31.6612 14.4858 31.6511 14.4582 31.6406 14.4307C31.6511 14.4582 31.6612 14.4858 31.6709 14.5137ZM31.6025 14.3369C31.5875 14.3008 31.572 14.265 31.5557 14.2295C31.572 14.265 31.5875 14.3008 31.6025 14.3369ZM25.9316 13.6992C25.7937 13.8929 25.6765 14.1024 25.583 14.3242L25.6582 14.1602C25.7371 13.9987 25.8284 13.8445 25.9316 13.6992ZM21.1611 14.1689C21.1451 14.1492 21.13 14.1286 21.1133 14.1094L21.1045 14.1006C21.124 14.1228 21.1425 14.1459 21.1611 14.1689ZM31.5264 14.167C31.5069 14.1268 31.4869 14.0871 31.4658 14.0479C31.4869 14.0871 31.5069 14.1269 31.5264 14.167ZM20.8691 13.998C20.9117 14.0372 20.9529 14.0777 20.9922 14.1201L20.8691 13.9971C20.8265 13.9578 20.782 13.9205 20.7363 13.8848L20.8691 13.998ZM18.3799 13.6885C18.3188 13.7217 18.2595 13.7581 18.2021 13.7969C18.3172 13.7191 18.4401 13.6524 18.5693 13.5977L18.3799 13.6885ZM28.1895 13.4658C28.1233 13.4783 28.058 13.4933 27.9941 13.5117C28.0382 13.5951 28.0834 13.6763 28.127 13.7559C28.0836 13.6766 28.039 13.5957 27.9951 13.5127C28.0588 13.4943 28.1236 13.4786 28.1895 13.4658ZM31.1074 13.5127C31.1408 13.5531 31.1737 13.5938 31.2051 13.6357L31.1084 13.5127C31.0419 13.4321 30.9713 13.3551 30.8975 13.2812L31.1074 13.5127ZM17.1709 13.3496C17.0994 13.4212 17.0313 13.4961 16.9668 13.5742L17.1719 13.3496C17.2434 13.2781 17.3184 13.21 17.3965 13.1455L17.1709 13.3496ZM18.9736 13.4717C18.9037 13.486 18.8349 13.5034 18.7676 13.5244L18.9746 13.4717C19.0448 13.4573 19.116 13.4459 19.1885 13.4385L18.9736 13.4717ZM28.2861 13.4492C28.2701 13.4515 28.2542 13.4544 28.2383 13.457C28.3037 13.4459 28.3702 13.4375 28.4375 13.4326L28.2861 13.4492ZM20.3027 12.5498L20.3047 12.5508L19.9072 11.5527L20.3027 12.5498ZM18.9268 12.458C18.8745 12.466 18.8228 12.4758 18.7715 12.4863L18.9277 12.458C18.9801 12.45 19.0328 12.4429 19.0859 12.4375L18.9268 12.458ZM19.8467 12.4521C19.7969 12.4452 19.7468 12.4401 19.6963 12.4355C19.6885 12.4348 19.6807 12.4334 19.6729 12.4326C19.7312 12.4377 19.7892 12.4441 19.8467 12.4521ZM28.7539 12.4258C28.808 12.4285 28.8617 12.4321 28.915 12.4375C28.862 12.4321 28.8086 12.4285 28.7549 12.4258L28.5918 12.4219L28.7539 12.4258ZM19.9639 12.3721L20.1436 12.4082C20.0255 12.3809 19.9048 12.3596 19.7822 12.3457L19.9639 12.3721ZM26.2344 12.0303L26.2783 12.1543C26.2795 12.1576 26.281 12.1608 26.2822 12.1641C26.2658 12.1192 26.2501 12.0742 26.2344 12.0293V12.0303ZM25.8086 10.6094C25.7965 10.6248 25.7847 10.6409 25.7744 10.6582L25.7305 10.7334L25.7754 10.6582C25.7857 10.6409 25.7974 10.6248 25.8096 10.6094C25.7828 10.5602 25.752 10.5132 25.7188 10.4688L25.8086 10.6094ZM25.0684 10.1348C25.1008 10.1438 25.1328 10.154 25.1641 10.166C25.1328 10.154 25.1009 10.1429 25.0684 10.1338C25.0222 10.1209 24.9749 10.1112 24.9268 10.1045L25.0684 10.1348ZM26.54 9.88867C26.5755 9.9373 26.6092 9.98739 26.6406 10.0391C26.577 9.93458 26.5053 9.83577 26.4258 9.74414L26.54 9.88867ZM24.335 9.63379C24.3409 9.66325 24.35 9.69165 24.3613 9.71875L24.3359 9.63379C24.33 9.6045 24.3262 9.57401 24.3262 9.54297L24.335 9.63379ZM24.459 9.22168C24.4385 9.24215 24.4206 9.26501 24.4043 9.28906L24.46 9.22168C24.4804 9.20128 24.5024 9.18225 24.5264 9.16602L24.459 9.22168ZM26.5957 16.4082C26.6113 16.446 26.6268 16.4838 26.6445 16.5205C26.6269 16.4838 26.6113 16.446 26.5957 16.4082ZM21.5879 15.0078V15.0059C21.5896 15.0123 21.5918 15.0188 21.5938 15.0254C21.5919 15.0195 21.5897 15.0137 21.5879 15.0078Z" fill="white"/>
        <path opacity="0.35" d="M15.2002 26.5H29.7998C30.3681 26.5 30.7648 26.5002 31.0732 26.5254C31.3002 26.5439 31.4546 26.5747 31.5732 26.6172L31.6807 26.6631C31.9276 26.7889 32.1342 26.9809 32.2783 27.2158L32.3369 27.3193C32.4039 27.4509 32.4499 27.6247 32.4746 27.9268C32.4998 28.2352 32.5 28.6319 32.5 29.2002V30.7998C32.5 31.3681 32.4998 31.7648 32.4746 32.0732C32.4561 32.3002 32.4253 32.4546 32.3828 32.5732L32.3369 32.6807C32.2111 32.9276 32.0191 33.1342 31.7842 33.2783L31.6807 33.3369C31.5491 33.4039 31.3753 33.4499 31.0732 33.4746C30.7648 33.4998 30.3681 33.5 29.7998 33.5H15.2002C14.6319 33.5 14.2352 33.4998 13.9268 33.4746C13.6998 33.4561 13.5454 33.4253 13.4268 33.3828L13.3193 33.3369C13.0724 33.2111 12.8658 33.0191 12.7217 32.7842L12.6631 32.6807C12.5961 32.5491 12.5501 32.3753 12.5254 32.0732C12.5002 31.7648 12.5 31.3681 12.5 30.7998V29.2002C12.5 28.6319 12.5002 28.2352 12.5254 27.9268C12.5439 27.6998 12.5747 27.5454 12.6172 27.4268L12.6631 27.3193C12.7889 27.0724 12.9809 26.8658 13.2158 26.7217L13.3193 26.6631C13.4509 26.5961 13.6247 26.5501 13.9268 26.5254C14.0809 26.5128 14.2573 26.5062 14.4658 26.5029L15.2002 26.5Z" stroke="white"/>
        <path opacity="0.4" d="M34 28V32.2344C34.8549 31.8758 35.4109 31.0415 35.4109 30.1172C35.4109 29.1929 34.8549 28.3586 34 28Z" fill="white"/>
        <path d="M14 29.6C14 29.0399 14 28.7599 14.109 28.546C14.2049 28.3578 14.3578 28.2049 14.546 28.109C14.7599 28 15.0399 28 15.6 28H29.4C29.9601 28 30.2401 28 30.454 28.109C30.6422 28.2049 30.7951 28.3578 30.891 28.546C31 28.7599 31 29.0399 31 29.6V30.4C31 30.9601 31 31.2401 30.891 31.454C30.7951 31.6422 30.6422 31.7951 30.454 31.891C30.2401 32 29.9601 32 29.4 32H15.6C15.0399 32 14.7599 32 14.546 31.891C14.3578 31.7951 14.2049 31.6422 14.109 31.454C14 31.2401 14 30.9601 14 30.4V29.6Z" fill="white"/>
    </g>
    <defs>
        <filter id="filter0_d_1285_7503" x="0" y="0" width="48" height="48" filterUnits="userSpaceOnUse" color-interpolation-filters="sRGB">
            <feFlood flood-opacity="0" result="BackgroundImageFix"/>
            <feColorMatrix in="SourceAlpha" type="matrix" values="0 0 0 0 0 0 0 0 0 0 0 0 0 0 0 0 0 0 127 0" result="hardAlpha"/>
            <feOffset dy="4"/>
            <feGaussianBlur stdDeviation="2"/>
            <feComposite in2="hardAlpha" operator="out"/>
            <feColorMatrix type="matrix" values="0 0 0 0 0 0 0 0 0 0 0 0 0 0 0 0 0 0 0.12 0"/>
            <feBlend mode="normal" in2="BackgroundImageFix" result="effect1_dropShadow_1285_7503"/>
            <feBlend mode="normal" in="SourceGraphic" in2="effect1_dropShadow_1285_7503" result="shape"/>
        </filter>
    </defs>
</svg>
