<svg width="25" height="24" viewBox="0 0 25 24" fill="none" xmlns="http://www.w3.org/2000/svg">
    <path d="M0.500122 2.11765C0.500122 0.948104 1.44823 0 2.61777 0H3.18248C4.35203 0 5.30013 0.948105 5.30013 2.11765V2.68236C5.30013 3.8519 4.35202 4.80001 3.18248 4.80001H2.61777C1.44823 4.80001 0.500122 3.8519 0.500122 2.68236V2.11765Z" fill="#849D65"/>
    <path d="M0.500122 11.7179C0.500122 10.5484 1.44823 9.60026 2.61777 9.60026H3.18248C4.35203 9.60026 5.30013 10.5484 5.30013 11.7179V12.2826C5.30013 13.4522 4.35202 14.4003 3.18248 14.4003H2.61777C1.44823 14.4003 0.500122 13.4522 0.500122 12.2826V11.7179Z" fill="#849D65"/>
    <path d="M0.500122 21.3176C0.500122 20.1481 1.44823 19.2 2.61777 19.2H3.18248C4.35203 19.2 5.30013 20.1481 5.30013 21.3176V21.8823C5.30013 23.0519 4.35202 24 3.18248 24H2.61777C1.44823 24 0.500122 23.0519 0.500122 21.8823V21.3176Z" fill="#849D65"/>
    <path d="M10.1001 2.11765C10.1001 0.948104 11.0482 0 12.2178 0H12.7825C13.952 0 14.9001 0.948105 14.9001 2.11765V2.68236C14.9001 3.8519 13.952 4.80001 12.7825 4.80001H12.2178C11.0482 4.80001 10.1001 3.8519 10.1001 2.68236V2.11765Z" fill="#849D65"/>
    <path d="M10.1001 11.7179C10.1001 10.5484 11.0482 9.60026 12.2178 9.60026H12.7825C13.952 9.60026 14.9001 10.5484 14.9001 11.7179V12.2826C14.9001 13.4522 13.952 14.4003 12.7825 14.4003H12.2178C11.0482 14.4003 10.1001 13.4522 10.1001 12.2826V11.7179Z" fill="#849D65"/>
    <path d="M10.1001 21.3176C10.1001 20.1481 11.0482 19.2 12.2178 19.2H12.7825C13.952 19.2 14.9001 20.1481 14.9001 21.3176V21.8823C14.9001 23.0519 13.952 24 12.7825 24H12.2178C11.0482 24 10.1001 23.0519 10.1001 21.8823V21.3176Z" fill="#849D65"/>
    <path d="M19.7001 2.11765C19.7001 0.948104 20.6482 0 21.8178 0H22.3825C23.552 0 24.5001 0.948105 24.5001 2.11765V2.68236C24.5001 3.8519 23.552 4.80001 22.3825 4.80001H21.8178C20.6482 4.80001 19.7001 3.8519 19.7001 2.68236V2.11765Z" fill="#849D65"/>
    <path d="M19.7001 11.7179C19.7001 10.5484 20.6482 9.60026 21.8178 9.60026H22.3825C23.552 9.60026 24.5001 10.5484 24.5001 11.7179V12.2826C24.5001 13.4522 23.552 14.4003 22.3825 14.4003H21.8178C20.6482 14.4003 19.7001 13.4522 19.7001 12.2826V11.7179Z" fill="#849D65"/>
    <path d="M19.7001 21.3176C19.7001 20.1481 20.6482 19.2 21.8178 19.2H22.3825C23.552 19.2 24.5001 20.1481 24.5001 21.3176V21.8823C24.5001 23.0519 23.552 24 22.3825 24H21.8178C20.6482 24 19.7001 23.0519 19.7001 21.8823V21.3176Z" fill="#849D65"/>
</svg>
