<svg width="24" height="24" viewBox="0 0 24 24" fill="none" xmlns="http://www.w3.org/2000/svg">
    <path d="M11.959 5.79492C17.381 5.79492 21.7967 9.97851 21.7969 15.1357C21.7969 17.0975 20.1271 18.6904 18.0771 18.6904C16.0273 18.6904 14.3574 17.0974 14.3574 15.1357C14.3573 13.9158 13.295 12.915 11.9707 12.915C10.6465 12.9152 9.58511 13.9159 9.58496 15.1357C9.58496 17.1396 10.3578 19.0141 11.7754 20.4199L11.9834 20.6211C13.0248 21.5984 14.0587 22.1601 15.6123 22.5898H15.6113C15.9716 22.6834 16.1695 23.0548 16.0791 23.3994L16.0801 23.4004C16.013 23.709 15.7318 23.9092 15.4502 23.9092C15.3932 23.9092 15.3267 23.8949 15.2783 23.8828H15.2764C13.5018 23.3917 12.2992 22.7417 11.085 21.6113L10.8418 21.3789C10.1204 20.6663 9.52909 19.8338 9.09473 18.9199L8.91895 18.5244C8.47418 17.4545 8.24679 16.3061 8.25098 15.1475L8.25586 14.9648C8.35585 13.0881 9.98503 11.5939 11.9707 11.5938C14.0205 11.5938 15.6902 13.1859 15.6904 15.1475C15.6904 16.3675 16.7528 17.3681 18.0771 17.3682C19.4016 17.3682 20.4639 16.3675 20.4639 15.1475C20.4636 10.7318 16.6553 7.14062 11.959 7.14062C8.6253 7.14068 5.57546 8.99474 4.2041 11.8662V11.8672C3.74835 12.8139 3.51372 13.9265 3.51367 15.1475C3.51367 16.0644 3.59609 17.5104 4.30176 19.3926L4.33691 19.5244C4.38808 19.8319 4.21846 20.1422 3.91309 20.248L3.91211 20.2471C3.56561 20.3786 3.18111 20.1939 3.06055 19.8604V19.8613C2.48603 18.3564 2.19223 16.7583 2.19238 15.1475L2.20508 14.6182C2.26485 13.3957 2.53322 12.2749 3.00391 11.2812L3.1582 10.9727C4.81102 7.8194 8.2296 5.79498 11.959 5.79492ZM12.0068 8.69434C15.7367 8.69453 18.7791 11.5882 18.7793 15.1475C18.7793 15.5201 18.4858 15.8142 18.1133 15.8145C17.7405 15.8145 17.4463 15.5202 17.4463 15.1475C17.4461 12.3295 15.0107 10.0275 12.0068 10.0273C9.00279 10.0273 6.56662 12.3294 6.56641 15.1475C6.56641 16.8407 6.94279 18.402 7.65723 19.667H7.6582L7.93066 20.1406C8.45825 21.0224 8.89686 21.5453 9.51172 22.1836L9.83496 22.5146L9.83594 22.5156L9.91895 22.6221C10.0845 22.8826 10.0567 23.2276 9.83594 23.46L9.83203 23.4639C9.68904 23.5938 9.51737 23.6592 9.34375 23.6592C9.30004 23.6596 9.25651 23.6569 9.21387 23.6484L9.08887 23.6094C9.00797 23.5747 8.93494 23.5234 8.875 23.459V23.458C7.97212 22.555 7.42916 21.9313 6.77441 20.8262L6.48535 20.3203C5.66169 18.8519 5.2334 17.0635 5.2334 15.1475C5.23361 11.5881 8.27683 8.69434 12.0068 8.69434ZM11.9355 14.4814C12.3082 14.4815 12.6023 14.7749 12.6025 15.1475C12.6025 16.7901 13.4414 18.3418 14.8652 19.2988L15.0215 19.3994C15.8124 19.889 16.731 20.126 17.8291 20.126C18.1083 20.126 18.5769 20.0908 19.0459 20.0088L19.1797 19.998C19.4888 20.0043 19.7609 20.2291 19.8193 20.5537L19.8311 20.6885C19.8246 20.9975 19.599 21.2689 19.2744 21.3271L19.2754 21.3281C18.5949 21.4595 17.9978 21.4707 17.8291 21.4707C16.4966 21.4707 15.3073 21.1561 14.3135 20.5332L14.1182 20.4053C12.3352 19.1967 11.2686 17.2325 11.2686 15.1475C11.2688 14.7749 11.5629 14.4814 11.9355 14.4814ZM6.21875 4.25586C9.90071 2.50376 14.5034 2.55089 18.1357 4.41895H18.1348C19.9206 5.33568 21.4211 6.63346 22.5996 8.28809L22.665 8.40137C22.6831 8.44144 22.6972 8.48331 22.707 8.52637L22.7236 8.65723C22.7248 8.70089 22.7213 8.74483 22.7139 8.78809C22.699 8.87479 22.6672 8.95791 22.6201 9.03223C22.5965 9.06943 22.5693 9.10405 22.5391 9.13574L22.4395 9.22168C22.1346 9.43365 21.7207 9.36792 21.5068 9.06055V9.06152C20.5414 7.6959 19.2796 6.56846 17.8174 5.7627L17.5225 5.60547C14.253 3.93088 10.0989 3.87851 6.78516 5.45898L6.4668 5.61719C4.87073 6.43872 3.53127 7.61115 2.47363 9.08984L2.47461 9.09082C2.36397 9.28441 2.1578 9.37598 1.94727 9.37598C1.85532 9.37669 1.76462 9.35911 1.68066 9.32324L1.59961 9.28125C1.52073 9.23382 1.45232 9.17119 1.39941 9.09668L1.35156 9.01758C1.295 8.90851 1.26948 8.78564 1.27832 8.66309L1.29102 8.57227C1.31011 8.48287 1.34768 8.39804 1.40137 8.32324L1.62598 8.01562C2.76832 6.49524 4.19173 5.29023 5.86621 4.43066L6.21875 4.25586ZM12.0186 0.0908203C14.3936 0.0908551 16.4869 0.58253 18.7363 1.67188L19.1885 1.89844L19.3037 1.97363C19.546 2.16983 19.6192 2.50888 19.4697 2.78906L19.4707 2.79004C19.4179 2.90136 19.3344 2.99535 19.2305 3.06152C19.1265 3.12766 19.006 3.16331 18.8828 3.16406H18.8818C18.7758 3.16403 18.6694 3.13724 18.5752 3.08398V3.08496C16.3129 1.91848 14.3604 1.42484 12.0186 1.4248C9.83339 1.4248 7.75228 1.9107 5.84277 2.88281L5.46289 3.08398C5.1416 3.25802 4.74275 3.13634 4.55762 2.81934L4.55566 2.81641C4.47275 2.66077 4.45418 2.47876 4.50391 2.30957C4.55371 2.14024 4.66812 1.99711 4.82227 1.91113H4.82324L5.24023 1.69238C7.33894 0.634651 9.62159 0.0908203 12.0186 0.0908203Z" fill="black" stroke="black" stroke-width="0.15"/>
</svg>
